<mxfile host="app.diagrams.net" agent="Mozilla/5.0 (Windows NT 10.0; Win64; x64) AppleWebKit/537.36 (KHTML, like Gecko) Chrome/132.0.0.0 Safari/537.36" version="26.0.6">
  <diagram id="gX6sR0FsEBkSwfCQFb4N" name="Trang-1">
    <mxGraphModel dx="4856" dy="2016" grid="1" gridSize="10" guides="1" tooltips="1" connect="1" arrows="1" fold="1" page="0" pageScale="1" pageWidth="827" pageHeight="1169" background="none" math="0" shadow="0">
      <root>
        <mxCell id="0" />
        <mxCell id="1" parent="0" />
        <mxCell id="node24" value="&lt;p style=&quot;margin:0px;margin-top:4px;text-align:center;&quot;&gt;&lt;font style=&quot;font-size: 18px;&quot;&gt;&lt;b style=&quot;background-color: initial;&quot;&gt;(E)&amp;nbsp;&lt;/b&gt;&lt;b&gt;SpaceObjectType&amp;nbsp;&lt;/b&gt;&lt;/font&gt;&lt;/p&gt;&lt;hr size=&quot;1&quot;&gt;&lt;p style=&quot;margin:0 0 0 4px;line-height:1.6;&quot;&gt;&lt;font size=&quot;3&quot;&gt;CommonSpace&lt;/font&gt;&lt;/p&gt;&lt;p style=&quot;margin:0 0 0 4px;line-height:1.6;&quot;&gt;&lt;font size=&quot;3&quot;&gt;WorkSpace&lt;/font&gt;&lt;/p&gt;&lt;p style=&quot;margin:0 0 0 4px;line-height:1.6;&quot;&gt;&lt;font size=&quot;3&quot;&gt;RestingSpace&lt;/font&gt;&lt;/p&gt;&lt;p style=&quot;margin:0 0 0 4px;line-height:1.6;&quot;&gt;&lt;font size=&quot;3&quot;&gt;SanitarySpace&lt;/font&gt;&lt;/p&gt;" style="verticalAlign=top;align=left;overflow=fill;fontSize=14;fontFamily=Helvetica;html=1;rounded=0;shadow=1;comic=0;labelBackgroundColor=none;strokeWidth=1;strokeColor=#FF8000;" parent="1" vertex="1">
          <mxGeometry x="1220" y="-697.81" width="220" height="160" as="geometry" />
        </mxCell>
        <mxCell id="node28" value="&lt;p style=&quot;margin:0px;margin-top:4px;text-align:center;&quot;&gt;&lt;font style=&quot;font-size: 18px;&quot;&gt;&lt;b style=&quot;background-color: initial;&quot;&gt;(A)&amp;nbsp;&lt;/b&gt;&lt;b style=&quot;text-align: left;&quot;&gt;CommonSpace&lt;/b&gt;&lt;/font&gt;&lt;/p&gt;&lt;hr size=&quot;1&quot;&gt;&lt;p style=&quot;margin:0 0 0 4px;line-height:1.6;&quot;&gt;&lt;font size=&quot;3&quot;&gt;SpaceObjectType objectType = CommonSpace&lt;/font&gt;&lt;/p&gt;&lt;p style=&quot;margin:0 0 0 4px;line-height:1.6;&quot;&gt;&lt;font size=&quot;3&quot;&gt;&lt;span style=&quot;background-color: initial;&quot;&gt;LightingTypeStatus&lt;/span&gt;&amp;nbsp;lightingType = LED&lt;br&gt;&lt;/font&gt;&lt;/p&gt;&lt;p style=&quot;margin: 0px 0px 0px 4px; line-height: 1.6;&quot;&gt;&lt;font size=&quot;3&quot;&gt;&lt;span style=&quot;background-color: initial;&quot;&gt;LightingStatus&lt;/span&gt;&amp;nbsp;lightingStatus = ON&lt;/font&gt;&lt;/p&gt;&lt;p style=&quot;margin:0 0 0 4px;line-height:1.6;&quot;&gt;&lt;font size=&quot;3&quot;&gt;+ airQuality (String)&lt;/font&gt;&lt;/p&gt;&lt;hr size=&quot;1&quot;&gt;&lt;p style=&quot;margin:0 0 0 4px;line-height:1.6;&quot;&gt;&lt;font size=&quot;3&quot;&gt;CommonSpace(String name,int area, double&lt;/font&gt;&lt;/p&gt;&lt;p style=&quot;margin:0 0 0 4px;line-height:1.6;&quot;&gt;&lt;font size=&quot;3&quot;&gt;&amp;nbsp;temperature, int floor, String airQuality )&lt;/font&gt;&lt;/p&gt;" style="verticalAlign=top;align=left;overflow=fill;fontSize=14;fontFamily=Helvetica;html=1;rounded=0;shadow=0;comic=0;labelBackgroundColor=none;strokeWidth=1;strokeColor=#3399FF;" parent="1" vertex="1">
          <mxGeometry x="600" y="-168.75" width="360" height="237.5" as="geometry" />
        </mxCell>
        <mxCell id="node14" value="&lt;p style=&quot;text-align: center; margin: 4px 0px 0px;&quot;&gt;&lt;font style=&quot;font-size: 18px;&quot;&gt;&lt;b&gt;(I)&amp;nbsp;&lt;/b&gt;&lt;/font&gt;&lt;span style=&quot;background-color: initial; font-size: 18px;&quot;&gt;&lt;b&gt;EmotionalActions&lt;/b&gt;&lt;/span&gt;&lt;/p&gt;&lt;hr style=&quot;text-align: center;&quot; size=&quot;1&quot;&gt;&lt;p style=&quot;margin:0 0 0 4px;line-height:1.6;&quot;&gt;&lt;font size=&quot;3&quot;&gt;+ &lt;b&gt;smile&lt;/b&gt;(): void&lt;/font&gt;&lt;/p&gt;&lt;p style=&quot;margin:0 0 0 4px;line-height:1.6;&quot;&gt;&lt;font size=&quot;3&quot;&gt;+&amp;nbsp;&lt;/font&gt;&lt;span style=&quot;background-color: initial;&quot;&gt;&lt;font size=&quot;3&quot;&gt;&lt;b&gt;thankTo(&lt;/b&gt;Person person)&lt;b&gt;: &lt;/b&gt;void&lt;/font&gt;&lt;/span&gt;&lt;/p&gt;&lt;p style=&quot;margin:0 0 0 4px;line-height:1.6;&quot;&gt;&lt;br&gt;&lt;/p&gt;&lt;p style=&quot;margin: 0px 0px 0px 4px; line-height: 1.6;&quot;&gt;&lt;font size=&quot;3&quot;&gt;&lt;br&gt;&lt;/font&gt;&lt;/p&gt;&lt;p style=&quot;margin:0 0 0 4px;line-height:1.6;&quot;&gt;&lt;span style=&quot;background-color: initial;&quot; class=&quot;hljs-params&quot;&gt;&lt;br&gt;&lt;/span&gt;&lt;/p&gt;" style="verticalAlign=top;align=left;overflow=fill;fontSize=14;fontFamily=Helvetica;html=1;rounded=0;shadow=1;comic=0;labelBackgroundColor=none;strokeWidth=1;strokeColor=#990099;" parent="1" vertex="1">
          <mxGeometry x="-1625" y="-505.62" width="260" height="105.62" as="geometry" />
        </mxCell>
        <mxCell id="node17" value="&lt;p style=&quot;margin:0px;margin-top:4px;text-align:center;&quot;&gt;&lt;font style=&quot;font-size: 18px;&quot;&gt;&lt;b style=&quot;background-color: initial;&quot;&gt;(E)&amp;nbsp;&lt;/b&gt;&lt;span style=&quot;background-color: initial; text-align: left;&quot;&gt;&lt;b&gt;LightingTypeStatus&lt;/b&gt;&lt;/span&gt;&lt;/font&gt;&lt;/p&gt;&lt;hr size=&quot;1&quot;&gt;&lt;p style=&quot;margin:0 0 0 4px;line-height:1.6;&quot;&gt;&lt;font size=&quot;3&quot;&gt;LED&lt;/font&gt;&lt;/p&gt;&lt;p style=&quot;margin:0 0 0 4px;line-height:1.6;&quot;&gt;&lt;font size=&quot;3&quot;&gt;BRIGHT&lt;/font&gt;&lt;/p&gt;&lt;p style=&quot;margin:0 0 0 4px;line-height:1.6;&quot;&gt;&lt;font size=&quot;3&quot;&gt;SOFT&lt;/font&gt;&lt;/p&gt;&lt;p style=&quot;margin:0 0 0 4px;line-height:1.6;&quot;&gt;&lt;font size=&quot;3&quot;&gt;FLUORESCENT&lt;/font&gt;&lt;/p&gt;&lt;p style=&quot;margin:0 0 0 4px;line-height:1.6;&quot;&gt;&lt;br&gt;&lt;/p&gt;" style="verticalAlign=top;align=left;overflow=fill;fontSize=14;fontFamily=Helvetica;html=1;rounded=0;shadow=1;comic=0;labelBackgroundColor=none;strokeWidth=1;strokeColor=#FF8000;" parent="1" vertex="1">
          <mxGeometry x="1220" y="-497.81" width="220" height="145" as="geometry" />
        </mxCell>
        <mxCell id="node27" value="&lt;p style=&quot;margin:0px;margin-top:4px;text-align:center;&quot;&gt;&lt;/p&gt;&lt;p style=&quot;text-align: center; margin: 0px 0px 0px 4px; line-height: 1.6;&quot;&gt;&lt;font style=&quot;font-size: 18px;&quot;&gt;&lt;b style=&quot;background-color: initial;&quot;&gt;(C)&lt;/b&gt;&lt;span style=&quot;background-color: initial;&quot;&gt;&lt;b&gt;&amp;nbsp;LivingRoom&lt;/b&gt;&lt;/span&gt;&lt;/font&gt;&lt;/p&gt;&lt;hr size=&quot;1&quot;&gt;&lt;p style=&quot;margin:0 0 0 4px;line-height:1.6;&quot;&gt;&lt;font size=&quot;3&quot;&gt;name = LivingRoom&lt;/font&gt;&lt;/p&gt;&lt;p style=&quot;margin:0 0 0 4px;line-height:1.6;&quot;&gt;&lt;font size=&quot;3&quot;&gt;area = 100&lt;/font&gt;&lt;/p&gt;&lt;p style=&quot;margin:0 0 0 4px;line-height:1.6;&quot;&gt;&lt;font size=&quot;3&quot;&gt;temperature = 24.5&lt;/font&gt;&lt;/p&gt;&lt;p style=&quot;margin:0 0 0 4px;line-height:1.6;&quot;&gt;&lt;font size=&quot;3&quot;&gt;floor = 1&lt;/font&gt;&lt;/p&gt;&lt;p style=&quot;margin:0 0 0 4px;line-height:1.6;&quot;&gt;&lt;font size=&quot;3&quot;&gt;airQuality = Good&lt;/font&gt;&lt;/p&gt;&lt;hr size=&quot;1&quot;&gt;&lt;p style=&quot;margin:0 0 0 4px;line-height:1.6;&quot;&gt;&lt;font size=&quot;3&quot;&gt;+ LivingRoom(): void&lt;br&gt;&lt;/font&gt;&lt;br&gt;&lt;/p&gt;" style="verticalAlign=top;align=left;overflow=fill;fontSize=14;fontFamily=Helvetica;html=1;rounded=0;shadow=1;comic=0;labelBackgroundColor=none;strokeWidth=1;strokeColor=#00FF00;" parent="1" vertex="1">
          <mxGeometry x="671.5" y="110" width="217" height="220" as="geometry" />
        </mxCell>
        <mxCell id="-Q3d0-Bmgez8fFhQrIDN-17" style="edgeStyle=orthogonalEdgeStyle;rounded=0;orthogonalLoop=1;jettySize=auto;html=1;exitX=0.5;exitY=0;exitDx=0;exitDy=0;entryX=0.5;entryY=1;entryDx=0;entryDy=0;" parent="1" source="node18" target="node15" edge="1">
          <mxGeometry relative="1" as="geometry">
            <Array as="points">
              <mxPoint x="20" y="-640" />
              <mxPoint x="-120" y="-640" />
            </Array>
            <mxPoint x="20" y="-530" as="targetPoint" />
          </mxGeometry>
        </mxCell>
        <mxCell id="-Q3d0-Bmgez8fFhQrIDN-18" style="edgeStyle=orthogonalEdgeStyle;rounded=0;orthogonalLoop=1;jettySize=auto;html=1;entryX=1;entryY=0.5;entryDx=0;entryDy=0;exitX=0.5;exitY=0;exitDx=0;exitDy=0;" parent="1" source="node11" target="node15" edge="1">
          <mxGeometry relative="1" as="geometry">
            <Array as="points">
              <mxPoint x="980" y="-735" />
            </Array>
            <mxPoint x="678" y="-640" as="sourcePoint" />
          </mxGeometry>
        </mxCell>
        <mxCell id="node15" value="&lt;h1 style=&quot;margin:0px;margin-top:4px;text-align:center;&quot;&gt;&lt;font style=&quot;font-size: 24px;&quot;&gt;&amp;nbsp;&amp;nbsp;&lt;b style=&quot;background-color: initial;&quot;&gt;(A)&amp;nbsp;&lt;/b&gt;&lt;b style=&quot;background-color: initial;&quot;&gt;PhysicalObject&lt;/b&gt;&lt;/font&gt;&lt;/h1&gt;&lt;hr size=&quot;1&quot;&gt;&lt;h3 style=&quot;margin:0 0 0 4px;line-height:1.6;&quot;&gt;&lt;span style=&quot;background-color: initial; font-weight: normal;&quot;&gt;&lt;font size=&quot;3&quot;&gt;+ static void main(String[] args)&lt;/font&gt;&lt;/span&gt;&lt;/h3&gt;" style="verticalAlign=top;align=left;overflow=fill;fontSize=14;fontFamily=Helvetica;html=1;rounded=0;shadow=1;comic=0;labelBackgroundColor=none;strokeWidth=1;strokeColor=#3399FF;" parent="1" vertex="1">
          <mxGeometry x="-300" y="-790" width="360" height="110" as="geometry" />
        </mxCell>
        <mxCell id="node18" value="&lt;p style=&quot;margin:0px;margin-top:4px;text-align:center;&quot;&gt;&lt;font style=&quot;font-size: 24px;&quot;&gt;&lt;b style=&quot;&quot;&gt;&amp;nbsp;&lt;/b&gt;&lt;b style=&quot;background-color: initial;&quot;&gt;(A)&amp;nbsp;&lt;/b&gt;&lt;b style=&quot;background-color: initial;&quot;&gt;Item&amp;nbsp;&lt;/b&gt;&lt;/font&gt;&lt;/p&gt;&lt;hr size=&quot;1&quot;&gt;&lt;p style=&quot;margin:0 0 0 4px;line-height:1.6;&quot;&gt;&lt;/p&gt;&lt;p style=&quot;margin:0 0 0 4px;line-height:1.6;&quot;&gt;&lt;font size=&quot;3&quot;&gt;&lt;b&gt;name&lt;/b&gt; (String)&lt;/font&gt;&lt;/p&gt;&lt;p style=&quot;margin:0 0 0 4px;line-height:1.6;&quot;&gt;&lt;font size=&quot;3&quot;&gt;&lt;b&gt;type &lt;/b&gt;(ItemType)&lt;/font&gt;&lt;/p&gt;&lt;p style=&quot;margin:0 0 0 4px;line-height:1.6;&quot;&gt;&lt;font size=&quot;3&quot;&gt;&lt;b&gt;owner &lt;/b&gt;( Person)&lt;/font&gt;&lt;/p&gt;&lt;p style=&quot;margin:0 0 0 4px;line-height:1.6;&quot;&gt;&lt;font size=&quot;3&quot;&gt;&lt;b&gt;mass &lt;/b&gt;(float)&lt;/font&gt;&lt;/p&gt;&lt;p style=&quot;margin:0 0 0 4px;line-height:1.6;&quot;&gt;&lt;font size=&quot;3&quot;&gt;&lt;b&gt;status&lt;/b&gt; (ItemStatus)&lt;/font&gt;&lt;/p&gt;&lt;p style=&quot;margin:0 0 0 4px;line-height:1.6;&quot;&gt;&lt;font size=&quot;3&quot;&gt;&lt;b&gt;color &lt;/b&gt;(String)&lt;/font&gt;&lt;/p&gt;&lt;hr size=&quot;1&quot;&gt;&lt;p style=&quot;margin:0 0 0 4px;line-height:1.6;&quot;&gt;&lt;font size=&quot;3&quot;&gt;&lt;b&gt;Item&lt;/b&gt;(&lt;span style=&quot;background-color: initial;&quot;&gt;String name, ItemType type,&amp;nbsp;&lt;/span&gt;&lt;span style=&quot;background-color: initial;&quot;&gt;Person owner,&amp;nbsp;&lt;/span&gt;&lt;/font&gt;&lt;/p&gt;&lt;p style=&quot;margin:0 0 0 4px;line-height:1.6;&quot;&gt;&lt;font size=&quot;3&quot;&gt;&lt;span style=&quot;background-color: initial;&quot; class=&quot;hljs-type&quot;&gt;float&lt;/span&gt;&lt;span style=&quot;background-color: initial;&quot;&gt; mass, ItemStatus status, String color)&lt;/span&gt;&lt;/font&gt;&lt;/p&gt;&lt;p style=&quot;margin:0 0 0 4px;line-height:1.6;&quot;&gt;&lt;span style=&quot;background-color: initial;&quot;&gt;&lt;font size=&quot;3&quot;&gt;&lt;b&gt;use&lt;/b&gt;&lt;/font&gt;&lt;/span&gt;&lt;font size=&quot;3&quot;&gt;():&amp;nbsp;&lt;/font&gt;&lt;span style=&quot;background-color: initial;&quot;&gt;&lt;font size=&quot;3&quot;&gt;void&lt;/font&gt;&lt;/span&gt;&lt;/p&gt;&lt;p style=&quot;margin:0 0 0 4px;line-height:1.6;&quot;&gt;&lt;br&gt;&lt;/p&gt;&lt;p style=&quot;margin:0 0 0 4px;line-height:1.6;&quot;&gt;&lt;br&gt;&lt;/p&gt;" style="verticalAlign=top;align=left;overflow=fill;fontSize=14;fontFamily=Helvetica;html=1;rounded=0;shadow=1;comic=0;labelBackgroundColor=none;strokeWidth=1;strokeColor=#3399FF;" parent="1" vertex="1">
          <mxGeometry x="-160" y="-604.06" width="360" height="302.5" as="geometry" />
        </mxCell>
        <mxCell id="node11" value="&lt;p style=&quot;margin:0px;margin-top:4px;text-align:center;&quot;&gt;&lt;font style=&quot;font-size: 18px;&quot;&gt;&lt;b&gt;&amp;nbsp;&lt;/b&gt;&lt;b style=&quot;background-color: initial;&quot;&gt;(A)&amp;nbsp;&lt;/b&gt;&lt;b style=&quot;background-color: initial;&quot;&gt;HouseSpace&amp;nbsp;&lt;/b&gt;&lt;/font&gt;&lt;/p&gt;&lt;hr size=&quot;1&quot;&gt;&lt;p style=&quot;margin:0 0 0 4px;line-height:1.6;&quot;&gt;&lt;font size=&quot;3&quot;&gt;&lt;strong&gt;name&lt;/strong&gt; (String)&lt;/font&gt;&lt;/p&gt;&lt;p style=&quot;margin:0 0 0 4px;line-height:1.6;&quot;&gt;&lt;font size=&quot;3&quot;&gt;&lt;b&gt;objectType &lt;/b&gt;(SpaceObjectType)&lt;/font&gt;&lt;/p&gt;&lt;p style=&quot;margin:0 0 0 4px;line-height:1.6;&quot;&gt;&lt;font size=&quot;3&quot;&gt;&lt;b&gt;area&lt;/b&gt; (int)&lt;/font&gt;&lt;/p&gt;&lt;p style=&quot;margin:0 0 0 4px;line-height:1.6;&quot;&gt;&lt;font size=&quot;3&quot;&gt;&lt;strong&gt;temperature&lt;/strong&gt; (double)&lt;/font&gt;&lt;/p&gt;&lt;p style=&quot;margin:0 0 0 4px;line-height:1.6;&quot;&gt;&lt;font size=&quot;3&quot;&gt;&lt;b style=&quot;background-color: initial;&quot;&gt;floor&amp;nbsp;&lt;/b&gt;&lt;span style=&quot;background-color: initial;&quot;&gt;(int)&lt;/span&gt;&lt;/font&gt;&lt;/p&gt;&lt;p style=&quot;margin:0 0 0 4px;line-height:1.6;&quot;&gt;&lt;b style=&quot;background-color: initial; font-size: medium;&quot;&gt;lightingType&amp;nbsp;&lt;/b&gt;&lt;font size=&quot;3&quot;&gt;&lt;span style=&quot;background-color: initial;&quot;&gt;(LightingType)&lt;/span&gt;&lt;/font&gt;&lt;/p&gt;&lt;p style=&quot;margin:0 0 0 4px;line-height:1.6;&quot;&gt;&lt;b style=&quot;font-size: medium; background-color: initial;&quot;&gt;lightingStatus (&lt;/b&gt;&lt;span style=&quot;font-size: medium; background-color: initial;&quot;&gt;LightingStatus)&lt;/span&gt;&lt;/p&gt;&lt;hr size=&quot;1&quot;&gt;&lt;p style=&quot;margin:0 0 0 4px;line-height:1.6;&quot;&gt;&lt;font size=&quot;3&quot;&gt;&lt;b style=&quot;text-align: center; background-color: initial;&quot;&gt;HouseSpace &lt;/b&gt;&lt;span style=&quot;text-align: center; background-color: initial;&quot;&gt;(String name, int area,&amp;nbsp;&lt;/span&gt;&lt;/font&gt;&lt;/p&gt;&lt;p style=&quot;margin:0 0 0 4px;line-height:1.6;&quot;&gt;&lt;font size=&quot;3&quot;&gt;&lt;span style=&quot;text-align: center; background-color: initial;&quot;&gt;double&amp;nbsp;&lt;/span&gt;&lt;/font&gt;&lt;font style=&quot;background-color: initial;&quot; size=&quot;3&quot;&gt;&lt;span style=&quot;text-align: center; background-color: initial;&quot;&gt;temperature,&amp;nbsp;&lt;/span&gt;&lt;/font&gt;&lt;span style=&quot;background-color: initial; font-size: medium; text-align: center;&quot;&gt;int floor)&lt;/span&gt;&lt;/p&gt;&lt;p style=&quot;margin:0 0 0 4px;line-height:1.6;&quot;&gt;&lt;br&gt;&lt;/p&gt;&lt;p style=&quot;margin:0 0 0 4px;line-height:1.6;&quot;&gt;&lt;br&gt;&lt;/p&gt;" style="verticalAlign=top;align=left;overflow=fill;fontSize=14;fontFamily=Helvetica;html=1;rounded=0;shadow=1;comic=0;labelBackgroundColor=none;strokeWidth=1;strokeColor=#3399FF;" parent="1" vertex="1">
          <mxGeometry x="830" y="-597.81" width="300" height="290" as="geometry" />
        </mxCell>
        <mxCell id="qdN0-BbKA66xPNNLP86g-2" value="" style="endArrow=none;html=1;rounded=0;entryX=1;entryY=0.5;entryDx=0;entryDy=0;exitX=0;exitY=0.5;exitDx=0;exitDy=0;strokeColor=#FF8000;" parent="1" source="node24" target="node11" edge="1">
          <mxGeometry width="50" height="50" relative="1" as="geometry">
            <mxPoint x="610" y="-65.31" as="sourcePoint" />
            <mxPoint x="660" y="-115.31" as="targetPoint" />
          </mxGeometry>
        </mxCell>
        <mxCell id="qdN0-BbKA66xPNNLP86g-3" value="" style="endArrow=none;html=1;rounded=0;entryX=1;entryY=0.5;entryDx=0;entryDy=0;exitX=0;exitY=0.5;exitDx=0;exitDy=0;strokeColor=#FF8000;" parent="1" source="node17" target="node11" edge="1">
          <mxGeometry width="50" height="50" relative="1" as="geometry">
            <mxPoint x="930" y="64.69" as="sourcePoint" />
            <mxPoint x="1022" y="5.689999999999998" as="targetPoint" />
          </mxGeometry>
        </mxCell>
        <mxCell id="z7JIA7cdmUVg2Eins9XX-2" value="" style="endArrow=classic;html=1;rounded=0;entryX=0.5;entryY=1;entryDx=0;entryDy=0;exitX=0.5;exitY=0;exitDx=0;exitDy=0;" parent="1" source="node27" target="node28" edge="1">
          <mxGeometry width="50" height="50" relative="1" as="geometry">
            <mxPoint x="990" y="120" as="sourcePoint" />
            <mxPoint x="1040" y="70" as="targetPoint" />
          </mxGeometry>
        </mxCell>
        <mxCell id="z7JIA7cdmUVg2Eins9XX-3" value="&lt;p style=&quot;margin:0px;margin-top:4px;text-align:center;&quot;&gt;&lt;font style=&quot;font-size: 18px;&quot;&gt;&lt;b style=&quot;background-color: initial;&quot;&gt;(A)&amp;nbsp;&lt;/b&gt;&lt;b style=&quot;text-align: left;&quot;&gt;SanitarySpace&lt;/b&gt;&lt;/font&gt;&lt;/p&gt;&lt;hr size=&quot;1&quot;&gt;&lt;p style=&quot;margin:0 0 0 4px;line-height:1.6;&quot;&gt;&lt;font size=&quot;3&quot;&gt;SpaceObjectType objectType = SanitarySpace&lt;/font&gt;&lt;/p&gt;&lt;p style=&quot;margin: 0px 0px 0px 4px; line-height: 1.6;&quot;&gt;&lt;font size=&quot;3&quot;&gt;&lt;span style=&quot;background-color: initial;&quot;&gt;LightingTypeStatus&lt;/span&gt;&amp;nbsp;lightingType =&amp;nbsp;&lt;span style=&quot;background-color: initial;&quot;&gt;FLUORESCENT&lt;/span&gt;&lt;/font&gt;&lt;/p&gt;&lt;p style=&quot;margin: 0px 0px 0px 4px; line-height: 1.6;&quot;&gt;&lt;font size=&quot;3&quot;&gt;&lt;span style=&quot;background-color: initial;&quot;&gt;LightingStatus&lt;/span&gt;&amp;nbsp;lightingStatus = ON&lt;/font&gt;&lt;/p&gt;&lt;p style=&quot;margin:0 0 0 4px;line-height:1.6;&quot;&gt;&lt;span style=&quot;background-color: initial;&quot;&gt;&lt;font size=&quot;3&quot;&gt;+ colorTheme (String)&lt;/font&gt;&lt;/span&gt;&lt;/p&gt;&lt;hr size=&quot;1&quot;&gt;&lt;p style=&quot;margin:0 0 0 4px;line-height:1.6;&quot;&gt;&lt;font size=&quot;3&quot;&gt;SanitarySpace(String name, int area, double&amp;nbsp;&lt;/font&gt;&lt;/p&gt;&lt;p style=&quot;margin:0 0 0 4px;line-height:1.6;&quot;&gt;&lt;font size=&quot;3&quot;&gt;temperature, int floor, String colorTheme)&lt;/font&gt;&lt;/p&gt;&lt;p style=&quot;margin:0 0 0 4px;line-height:1.6;&quot;&gt;&lt;font size=&quot;3&quot;&gt;+status(): void&lt;/font&gt;&lt;/p&gt;" style="verticalAlign=top;align=left;overflow=fill;fontSize=14;fontFamily=Helvetica;html=1;rounded=0;shadow=0;comic=0;labelBackgroundColor=none;strokeWidth=1;strokeColor=#3399FF;" parent="1" vertex="1">
          <mxGeometry x="1000" y="-168.75" width="420" height="237.5" as="geometry" />
        </mxCell>
        <mxCell id="z7JIA7cdmUVg2Eins9XX-5" value="&lt;p style=&quot;margin:0px;margin-top:4px;text-align:center;&quot;&gt;&lt;/p&gt;&lt;p style=&quot;text-align: center; margin: 0px 0px 0px 4px; line-height: 1.6;&quot;&gt;&lt;font style=&quot;font-size: 18px;&quot;&gt;&lt;b style=&quot;background-color: initial;&quot;&gt;(C)&lt;/b&gt;&lt;span style=&quot;background-color: initial;&quot;&gt;&lt;b&gt;&amp;nbsp;&lt;/b&gt;&lt;/span&gt;&lt;span style=&quot;background-color: initial; text-align: left;&quot;&gt;&lt;b&gt;Bathroom&lt;/b&gt;&lt;/span&gt;&lt;/font&gt;&lt;/p&gt;&lt;hr size=&quot;1&quot;&gt;&lt;p style=&quot;margin:0 0 0 4px;line-height:1.6;&quot;&gt;&lt;font size=&quot;3&quot;&gt;name = Bathroom&lt;/font&gt;&lt;/p&gt;&lt;p style=&quot;margin:0 0 0 4px;line-height:1.6;&quot;&gt;&lt;font size=&quot;3&quot;&gt;area = 25&lt;/font&gt;&lt;/p&gt;&lt;p style=&quot;margin:0 0 0 4px;line-height:1.6;&quot;&gt;&lt;font size=&quot;3&quot;&gt;temperature = 30&lt;/font&gt;&lt;/p&gt;&lt;p style=&quot;margin:0 0 0 4px;line-height:1.6;&quot;&gt;&lt;font size=&quot;3&quot;&gt;floor = 2&lt;/font&gt;&lt;/p&gt;&lt;p style=&quot;margin:0 0 0 4px;line-height:1.6;&quot;&gt;&lt;font size=&quot;3&quot;&gt;colorTheme = Black&lt;/font&gt;&lt;/p&gt;&lt;hr size=&quot;1&quot;&gt;&lt;p style=&quot;margin:0 0 0 4px;line-height:1.6;&quot;&gt;&lt;font size=&quot;3&quot;&gt;+ Bathroom(): void&lt;br&gt;&lt;/font&gt;&lt;br&gt;&lt;/p&gt;" style="verticalAlign=top;align=left;overflow=fill;fontSize=14;fontFamily=Helvetica;html=1;rounded=0;shadow=1;comic=0;labelBackgroundColor=none;strokeWidth=1;strokeColor=#00FF00;" parent="1" vertex="1">
          <mxGeometry x="1070" y="110" width="279.5" height="220" as="geometry" />
        </mxCell>
        <mxCell id="z7JIA7cdmUVg2Eins9XX-6" value="" style="endArrow=classic;html=1;rounded=0;exitX=0.5;exitY=0;exitDx=0;exitDy=0;entryX=0.5;entryY=1;entryDx=0;entryDy=0;" parent="1" source="z7JIA7cdmUVg2Eins9XX-5" target="z7JIA7cdmUVg2Eins9XX-3" edge="1">
          <mxGeometry width="50" height="50" relative="1" as="geometry">
            <mxPoint x="1350" y="-80" as="sourcePoint" />
            <mxPoint x="1400" y="-130" as="targetPoint" />
          </mxGeometry>
        </mxCell>
        <mxCell id="z7JIA7cdmUVg2Eins9XX-14" value="" style="endArrow=classic;html=1;rounded=0;exitX=0.5;exitY=0;exitDx=0;exitDy=0;entryX=0;entryY=0.5;entryDx=0;entryDy=0;" parent="1" source="z7JIA7cdmUVg2Eins9XX-15" target="node15" edge="1">
          <mxGeometry width="50" height="50" relative="1" as="geometry">
            <mxPoint x="-320" y="-450" as="sourcePoint" />
            <mxPoint x="-270" y="-500" as="targetPoint" />
            <Array as="points">
              <mxPoint x="-1040" y="-735" />
            </Array>
          </mxGeometry>
        </mxCell>
        <mxCell id="z7JIA7cdmUVg2Eins9XX-15" value="&lt;p style=&quot;margin:0px;margin-top:4px;text-align:center;&quot;&gt;&lt;font style=&quot;font-size: 24px;&quot;&gt;&lt;b style=&quot;&quot;&gt;&amp;nbsp;&lt;/b&gt;&lt;b style=&quot;background-color: initial;&quot;&gt;(A)&amp;nbsp;&lt;/b&gt;&lt;b style=&quot;background-color: initial;&quot;&gt;Person&amp;nbsp;&lt;/b&gt;&lt;/font&gt;&lt;/p&gt;&lt;hr size=&quot;1&quot;&gt;&lt;p style=&quot;margin:0 0 0 4px;line-height:1.6;&quot;&gt;&lt;font size=&quot;3&quot;&gt;&lt;strong&gt;name&lt;/strong&gt; (String)&lt;/font&gt;&lt;/p&gt;&lt;p style=&quot;margin:0 0 0 4px;line-height:1.6;&quot;&gt;&lt;font size=&quot;3&quot;&gt;&lt;b&gt;age &lt;/b&gt;(int)&lt;/font&gt;&lt;/p&gt;&lt;p style=&quot;margin:0 0 0 4px;line-height:1.6;&quot;&gt;&lt;font size=&quot;3&quot;&gt;&lt;span style=&quot;background-color: initial;&quot;&gt;&lt;b&gt;gender&amp;nbsp;&lt;/b&gt;&lt;/span&gt;(String)&lt;/font&gt;&lt;/p&gt;&lt;p style=&quot;margin:0 0 0 4px;line-height:1.6;&quot;&gt;&lt;font size=&quot;3&quot;&gt;&lt;b&gt;location&amp;nbsp;&lt;/b&gt;(HouseSpace)&lt;/font&gt;&lt;/p&gt;&lt;p style=&quot;margin:0 0 0 4px;line-height:1.6;&quot;&gt;&lt;font size=&quot;3&quot;&gt;&lt;span style=&quot;background-color: initial;&quot;&gt;&lt;b&gt;height&amp;nbsp;&lt;/b&gt;&lt;/span&gt;(double)&lt;/font&gt;&lt;/p&gt;&lt;p style=&quot;margin:0 0 0 4px;line-height:1.6;&quot;&gt;&lt;font size=&quot;3&quot;&gt;&lt;b&gt;weight &lt;/b&gt;(double)&lt;/font&gt;&lt;/p&gt;&lt;p style=&quot;margin:0 0 0 4px;line-height:1.6;&quot;&gt;&lt;font size=&quot;3&quot;&gt;&lt;b&gt;language &lt;/b&gt;(String)&lt;/font&gt;&lt;/p&gt;&lt;hr size=&quot;1&quot;&gt;&lt;p style=&quot;margin: 0px 0px 0px 4px; line-height: 1.6;&quot;&gt;&lt;b style=&quot;font-size: medium; background-color: initial;&quot;&gt;Person&lt;/b&gt;&lt;span style=&quot;font-size: medium; background-color: initial;&quot;&gt;(String name, int age, String gender, HouseSpace location,&amp;nbsp;&lt;/span&gt;&lt;/p&gt;&lt;p style=&quot;margin: 0px 0px 0px 4px; line-height: 1.6;&quot;&gt;&lt;font size=&quot;3&quot;&gt;double height, double weight, String language)&lt;/font&gt;&lt;/p&gt;&lt;p style=&quot;margin: 0px 0px 0px 4px; line-height: 1.6;&quot;&gt;&lt;font size=&quot;3&quot;&gt;&lt;b&gt;lookAround&lt;/b&gt;(): void&lt;/font&gt;&lt;/p&gt;&lt;p style=&quot;margin: 0px 0px 0px 4px; line-height: 1.6;&quot;&gt;&lt;font size=&quot;3&quot;&gt;&lt;b&gt;lookAt&lt;/b&gt; (Person person): void&lt;/font&gt;&lt;/p&gt;&lt;p style=&quot;margin:0 0 0 4px;line-height:1.6;&quot;&gt;&lt;font size=&quot;3&quot;&gt;&lt;b&gt;smile&lt;/b&gt;():&amp;nbsp;&lt;/font&gt;&lt;span style=&quot;font-size: medium; background-color: initial;&quot;&gt;void&lt;/span&gt;&lt;/p&gt;&lt;p style=&quot;margin:0 0 0 4px;line-height:1.6;&quot;&gt;&lt;font size=&quot;3&quot;&gt;&lt;b&gt;thankTo&lt;/b&gt;(Person person):&amp;nbsp;&lt;/font&gt;&lt;span style=&quot;font-size: medium; background-color: initial;&quot;&gt;void&lt;/span&gt;&lt;/p&gt;&lt;p style=&quot;margin:0 0 0 4px;line-height:1.6;&quot;&gt;&lt;font size=&quot;3&quot;&gt;&lt;b&gt;moveTo&lt;/b&gt;(HouseSpace newLocation):&amp;nbsp;&lt;/font&gt;&lt;span style=&quot;font-size: medium; background-color: initial;&quot;&gt;void&lt;/span&gt;&lt;/p&gt;&lt;p style=&quot;margin:0 0 0 4px;line-height:1.6;&quot;&gt;&lt;b&gt;turnOffLight&lt;/b&gt;():&amp;nbsp;&lt;span style=&quot;font-size: medium; background-color: initial;&quot;&gt;void&lt;/span&gt;&lt;/p&gt;&lt;p style=&quot;margin:0 0 0 4px;line-height:1.6;&quot;&gt;&lt;b&gt;turnOnLight&lt;/b&gt;():&amp;nbsp;&lt;span style=&quot;font-size: medium; background-color: initial;&quot;&gt;void&lt;/span&gt;&lt;/p&gt;&lt;p style=&quot;margin:0 0 0 4px;line-height:1.6;&quot;&gt;&lt;b&gt;addItems&lt;/b&gt;(List&amp;lt;Item&amp;gt; itemsToAdd, Hat hat):&amp;nbsp;&lt;span style=&quot;font-size: medium; background-color: initial;&quot;&gt;void&lt;/span&gt;&lt;/p&gt;&lt;p style=&quot;margin:0 0 0 4px;line-height:1.6;&quot;&gt;&lt;b&gt;pullHat&lt;/b&gt;(Hat hat):&amp;nbsp;&lt;span style=&quot;font-size: medium; background-color: initial;&quot;&gt;void&lt;/span&gt;&lt;/p&gt;&lt;p style=&quot;margin:0 0 0 4px;line-height:1.6;&quot;&gt;&lt;b&gt;takeItems&lt;/b&gt;(List&amp;lt;Item&amp;gt; itemsToTake, Hat hat):&amp;nbsp;&lt;span style=&quot;font-size: medium; background-color: initial;&quot;&gt;void&lt;/span&gt;&lt;/p&gt;&lt;p style=&quot;margin:0 0 0 4px;line-height:1.6;&quot;&gt;&lt;b&gt;hideItem&lt;/b&gt;(List&amp;lt;Item&amp;gt; items):&amp;nbsp;&lt;span style=&quot;font-size: medium; background-color: initial;&quot;&gt;void&lt;/span&gt;&lt;/p&gt;&lt;p style=&quot;margin:0 0 0 4px;line-height:1.6;&quot;&gt;&lt;b&gt;lookAtItem&lt;/b&gt;(Item item):&amp;nbsp;&lt;span style=&quot;font-size: medium; background-color: initial;&quot;&gt;void&lt;/span&gt;&lt;/p&gt;&lt;p style=&quot;margin:0 0 0 4px;line-height:1.6;&quot;&gt;&lt;b&gt;compareItem&lt;/b&gt;(Item item1, Item item2):&amp;nbsp;&lt;span style=&quot;font-size: medium; background-color: initial;&quot;&gt;void&lt;/span&gt;&lt;/p&gt;" style="verticalAlign=top;align=left;overflow=fill;fontSize=14;fontFamily=Helvetica;html=1;rounded=0;shadow=0;comic=0;labelBackgroundColor=none;strokeWidth=1;strokeColor=#3399FF;" parent="1" vertex="1">
          <mxGeometry x="-1290" y="-604.06" width="500" height="650" as="geometry" />
        </mxCell>
        <mxCell id="z7JIA7cdmUVg2Eins9XX-16" value="&lt;p style=&quot;margin:0px;margin-top:4px;text-align:center;&quot;&gt;&lt;font style=&quot;font-size: 18px;&quot;&gt;&lt;b style=&quot;background-color: initial;&quot;&gt;(E)&amp;nbsp;&lt;/b&gt;&lt;b style=&quot;&quot;&gt;PersonType&amp;nbsp;&lt;/b&gt;&lt;/font&gt;&lt;/p&gt;&lt;hr size=&quot;1&quot;&gt;&lt;p style=&quot;margin:0 0 0 4px;line-height:1.6;&quot;&gt;&lt;font size=&quot;3&quot;&gt;GUEST&lt;/font&gt;&lt;/p&gt;&lt;p style=&quot;margin:0 0 0 4px;line-height:1.6;&quot;&gt;&lt;font size=&quot;3&quot;&gt;HOST&lt;/font&gt;&lt;/p&gt;" style="verticalAlign=top;align=left;overflow=fill;fontSize=14;fontFamily=Helvetica;html=1;rounded=0;shadow=1;comic=0;labelBackgroundColor=none;strokeWidth=1;strokeColor=#FF8000;" parent="1" vertex="1">
          <mxGeometry x="-750" y="-326.56" width="160" height="95" as="geometry" />
        </mxCell>
        <mxCell id="z7JIA7cdmUVg2Eins9XX-17" value="" style="endArrow=none;html=1;rounded=0;entryX=0;entryY=0.5;entryDx=0;entryDy=0;strokeColor=#FF8000;exitX=1;exitY=0.5;exitDx=0;exitDy=0;" parent="1" source="z7JIA7cdmUVg2Eins9XX-15" target="z7JIA7cdmUVg2Eins9XX-16" edge="1">
          <mxGeometry width="50" height="50" relative="1" as="geometry">
            <mxPoint x="-775" y="-280" as="sourcePoint" />
            <mxPoint x="-745" y="77.5" as="targetPoint" />
          </mxGeometry>
        </mxCell>
        <mxCell id="z7JIA7cdmUVg2Eins9XX-18" value="&lt;p style=&quot;margin:0px;margin-top:4px;text-align:center;&quot;&gt;&lt;/p&gt;&lt;p style=&quot;text-align: center; margin: 0px 0px 0px 4px; line-height: 1.6;&quot;&gt;&lt;font style=&quot;font-size: 18px;&quot;&gt;&lt;b style=&quot;background-color: initial;&quot;&gt;(C)&lt;/b&gt;&lt;span style=&quot;background-color: initial;&quot;&gt;&lt;b&gt;&amp;nbsp;&lt;/b&gt;&lt;/span&gt;&lt;span style=&quot;background-color: initial;&quot;&gt;&lt;b&gt;Scooperfield&lt;/b&gt;&lt;/span&gt;&lt;/font&gt;&lt;/p&gt;&lt;hr style=&quot;text-align: center;&quot; size=&quot;1&quot;&gt;&lt;p style=&quot;margin:0 0 0 4px;line-height:1.6;&quot;&gt;&lt;font size=&quot;3&quot;&gt;name =&amp;nbsp;&lt;span style=&quot;background-color: initial;&quot;&gt;Scooperfield&lt;/span&gt;&lt;/font&gt;&lt;/p&gt;&lt;p style=&quot;margin: 0px 0px 0px 4px; line-height: 1.6;&quot;&gt;&lt;span style=&quot;background-color: initial;&quot;&gt;&lt;font size=&quot;3&quot;&gt;age = 53&lt;/font&gt;&lt;/span&gt;&lt;/p&gt;&lt;p style=&quot;margin: 0px 0px 0px 4px; line-height: 1.6;&quot;&gt;&lt;font size=&quot;3&quot;&gt;gender = male&lt;/font&gt;&lt;/p&gt;&lt;p style=&quot;margin: 0px 0px 0px 4px; line-height: 1.6;&quot;&gt;&lt;font size=&quot;3&quot;&gt;height = 172&lt;/font&gt;&lt;/p&gt;&lt;p style=&quot;margin: 0px 0px 0px 4px; line-height: 1.6;&quot;&gt;&lt;font size=&quot;3&quot;&gt;weight = 66&lt;/font&gt;&lt;/p&gt;&lt;p style=&quot;margin: 0px 0px 0px 4px; line-height: 1.6;&quot;&gt;&lt;font size=&quot;3&quot;&gt;language = Russian&lt;/font&gt;&lt;/p&gt;&lt;hr size=&quot;1&quot;&gt;&lt;p style=&quot;margin:0 0 0 4px;line-height:1.6;&quot;&gt;&lt;br&gt;&lt;/p&gt;" style="verticalAlign=top;align=left;overflow=fill;fontSize=14;fontFamily=Helvetica;html=1;rounded=0;shadow=1;comic=0;labelBackgroundColor=none;strokeWidth=1;strokeColor=#00FF00;" parent="1" vertex="1">
          <mxGeometry x="-1405" y="440" width="260" height="230" as="geometry" />
        </mxCell>
        <mxCell id="z7JIA7cdmUVg2Eins9XX-19" value="&lt;p style=&quot;margin:0px;margin-top:4px;text-align:center;&quot;&gt;&lt;/p&gt;&lt;p style=&quot;text-align: center; margin: 0px 0px 0px 4px; line-height: 1.6;&quot;&gt;&lt;font style=&quot;font-size: 18px;&quot;&gt;&lt;b style=&quot;background-color: initial;&quot;&gt;(C)&lt;/b&gt;&lt;span style=&quot;background-color: initial;&quot;&gt;&lt;b&gt;&amp;nbsp;&lt;/b&gt;&lt;/span&gt;&lt;span style=&quot;background-color: initial; text-align: left;&quot;&gt;&lt;b&gt;Krabs&lt;/b&gt;&lt;/span&gt;&lt;/font&gt;&lt;/p&gt;&lt;hr size=&quot;1&quot;&gt;&lt;p style=&quot;margin:0 0 0 4px;line-height:1.6;&quot;&gt;&lt;font size=&quot;3&quot;&gt;name =&amp;nbsp;&lt;span style=&quot;background-color: initial;&quot;&gt;Krabs&lt;/span&gt;&lt;/font&gt;&lt;/p&gt;&lt;p style=&quot;margin:0 0 0 4px;line-height:1.6;&quot;&gt;&lt;font size=&quot;3&quot;&gt;age = 49&lt;/font&gt;&lt;/p&gt;&lt;p style=&quot;margin:0 0 0 4px;line-height:1.6;&quot;&gt;&lt;font size=&quot;3&quot;&gt;gender = male&lt;/font&gt;&lt;/p&gt;&lt;p style=&quot;margin:0 0 0 4px;line-height:1.6;&quot;&gt;&lt;font size=&quot;3&quot;&gt;height = 170&lt;/font&gt;&lt;/p&gt;&lt;p style=&quot;margin:0 0 0 4px;line-height:1.6;&quot;&gt;&lt;font size=&quot;3&quot;&gt;weight = 70&lt;/font&gt;&lt;/p&gt;&lt;p style=&quot;margin:0 0 0 4px;line-height:1.6;&quot;&gt;&lt;font size=&quot;3&quot;&gt;language = Russian&lt;/font&gt;&lt;/p&gt;&lt;hr size=&quot;1&quot;&gt;&lt;p style=&quot;margin:0 0 0 4px;line-height:1.6;&quot;&gt;&lt;br&gt;&lt;/p&gt;" style="verticalAlign=top;align=left;overflow=fill;fontSize=14;fontFamily=Helvetica;html=1;rounded=0;shadow=1;comic=0;labelBackgroundColor=none;strokeWidth=1;strokeColor=#00FF00;" parent="1" vertex="1">
          <mxGeometry x="-965" y="440" width="190" height="230" as="geometry" />
        </mxCell>
        <mxCell id="z7JIA7cdmUVg2Eins9XX-22" value="" style="endArrow=classic;html=1;rounded=0;entryX=0.5;entryY=1;entryDx=0;entryDy=0;exitX=0.5;exitY=0;exitDx=0;exitDy=0;" parent="1" source="z7JIA7cdmUVg2Eins9XX-18" target="iWBeRTfewltvSb-JFVSI-3" edge="1">
          <mxGeometry width="50" height="50" relative="1" as="geometry">
            <mxPoint x="-1075" y="-220" as="sourcePoint" />
            <mxPoint x="-1025" y="-270" as="targetPoint" />
          </mxGeometry>
        </mxCell>
        <mxCell id="z7JIA7cdmUVg2Eins9XX-25" value="" style="endArrow=classic;html=1;rounded=0;exitX=0.5;exitY=0;exitDx=0;exitDy=0;entryX=0.75;entryY=1;entryDx=0;entryDy=0;" parent="1" source="iWBeRTfewltvSb-JFVSI-5" target="z7JIA7cdmUVg2Eins9XX-15" edge="1">
          <mxGeometry width="50" height="50" relative="1" as="geometry">
            <mxPoint x="-1065" y="-210" as="sourcePoint" />
            <mxPoint x="-1015" y="-260" as="targetPoint" />
          </mxGeometry>
        </mxCell>
        <mxCell id="yoIGJlYAwWlr1iCUXd0q-2" value="&lt;p style=&quot;margin:0px;margin-top:4px;text-align:center;&quot;&gt;&lt;font style=&quot;font-size: 18px;&quot;&gt;&lt;b style=&quot;background-color: initial;&quot;&gt;(E)&amp;nbsp;&lt;/b&gt;&lt;b style=&quot;&quot;&gt;ItemType&amp;nbsp;&lt;/b&gt;&lt;/font&gt;&lt;/p&gt;&lt;hr size=&quot;1&quot;&gt;&lt;p style=&quot;margin:0 0 0 4px;line-height:1.6;&quot;&gt;&lt;font size=&quot;3&quot;&gt;Personal&lt;/font&gt;&lt;/p&gt;&lt;p style=&quot;margin:0 0 0 4px;line-height:1.6;&quot;&gt;&lt;font size=&quot;3&quot;&gt;Tool&lt;/font&gt;&lt;/p&gt;&lt;p style=&quot;margin:0 0 0 4px;line-height:1.6;&quot;&gt;&lt;font size=&quot;3&quot;&gt;Clothing&lt;/font&gt;&lt;/p&gt;&lt;p style=&quot;margin:0 0 0 4px;line-height:1.6;&quot;&gt;&lt;br&gt;&lt;/p&gt;&lt;p style=&quot;margin:0 0 0 4px;line-height:1.6;&quot;&gt;&lt;font size=&quot;3&quot;&gt;&lt;br&gt;&lt;/font&gt;&lt;/p&gt;&lt;p style=&quot;margin:0 0 0 4px;line-height:1.6;&quot;&gt;&lt;br&gt;&lt;/p&gt;" style="verticalAlign=top;align=left;overflow=fill;fontSize=14;fontFamily=Helvetica;html=1;rounded=0;shadow=1;comic=0;labelBackgroundColor=none;strokeWidth=1;strokeColor=#FF8000;" parent="1" vertex="1">
          <mxGeometry x="270" y="-419.9999999999999" width="180" height="132.18" as="geometry" />
        </mxCell>
        <mxCell id="yoIGJlYAwWlr1iCUXd0q-3" value="&lt;p style=&quot;margin:0px;margin-top:4px;text-align:center;&quot;&gt;&lt;font style=&quot;font-size: 18px;&quot;&gt;&lt;b style=&quot;background-color: initial;&quot;&gt;(E)&amp;nbsp;&lt;/b&gt;&lt;b style=&quot;&quot;&gt;ItemStatus&amp;nbsp;&lt;/b&gt;&lt;/font&gt;&lt;/p&gt;&lt;hr size=&quot;1&quot;&gt;&lt;p style=&quot;margin:0 0 0 4px;line-height:1.6;&quot;&gt;&lt;font size=&quot;3&quot;&gt;NEW&lt;/font&gt;&lt;/p&gt;&lt;p style=&quot;margin:0 0 0 4px;line-height:1.6;&quot;&gt;&lt;font size=&quot;3&quot;&gt;OLD&lt;br&gt;USED&lt;br&gt;BROKEN&lt;/font&gt;&lt;/p&gt;&lt;p style=&quot;margin:0 0 0 4px;line-height:1.6;&quot;&gt;&lt;br&gt;&lt;/p&gt;" style="verticalAlign=top;align=left;overflow=fill;fontSize=14;fontFamily=Helvetica;html=1;rounded=0;shadow=0;comic=0;labelBackgroundColor=none;strokeWidth=1;strokeColor=#FF8000;" parent="1" vertex="1">
          <mxGeometry x="270" y="-602.5000000000001" width="210" height="145" as="geometry" />
        </mxCell>
        <mxCell id="yoIGJlYAwWlr1iCUXd0q-5" value="" style="endArrow=none;html=1;rounded=0;exitX=0;exitY=0.5;exitDx=0;exitDy=0;entryX=1;entryY=0.5;entryDx=0;entryDy=0;strokeColor=#FF8000;" parent="1" source="yoIGJlYAwWlr1iCUXd0q-3" target="node18" edge="1">
          <mxGeometry width="50" height="50" relative="1" as="geometry">
            <mxPoint x="-50" y="-390" as="sourcePoint" />
            <mxPoint y="-440" as="targetPoint" />
          </mxGeometry>
        </mxCell>
        <mxCell id="yoIGJlYAwWlr1iCUXd0q-6" value="" style="endArrow=none;html=1;rounded=0;exitX=0;exitY=0.5;exitDx=0;exitDy=0;strokeColor=#FF8000;entryX=1;entryY=0.5;entryDx=0;entryDy=0;" parent="1" source="yoIGJlYAwWlr1iCUXd0q-2" target="node18" edge="1">
          <mxGeometry width="50" height="50" relative="1" as="geometry">
            <mxPoint x="-50" y="-390" as="sourcePoint" />
            <mxPoint x="60" y="-451" as="targetPoint" />
          </mxGeometry>
        </mxCell>
        <mxCell id="iWBeRTfewltvSb-JFVSI-29" value="" style="edgeStyle=orthogonalEdgeStyle;rounded=0;orthogonalLoop=1;jettySize=auto;html=1;entryX=0.5;entryY=1;entryDx=0;entryDy=0;" parent="1" source="yoIGJlYAwWlr1iCUXd0q-8" target="iWBeRTfewltvSb-JFVSI-25" edge="1">
          <mxGeometry relative="1" as="geometry">
            <mxPoint x="-420" y="-171.25" as="targetPoint" />
            <Array as="points">
              <mxPoint x="-390" y="-70" />
              <mxPoint x="-390" y="-70" />
            </Array>
          </mxGeometry>
        </mxCell>
        <mxCell id="yoIGJlYAwWlr1iCUXd0q-8" value="&lt;p style=&quot;margin:0px;margin-top:4px;text-align:center;&quot;&gt;&lt;/p&gt;&lt;p style=&quot;text-align: center; margin: 0px 0px 0px 4px; line-height: 1.6;&quot;&gt;&lt;font style=&quot;font-size: 18px;&quot;&gt;&lt;b style=&quot;background-color: initial;&quot;&gt;(C)&lt;/b&gt;&lt;span style=&quot;background-color: initial;&quot;&gt;&lt;b&gt;&amp;nbsp;Hat&lt;/b&gt;&lt;/span&gt;&lt;/font&gt;&lt;/p&gt;&lt;hr size=&quot;1&quot;&gt;&lt;p style=&quot;margin:0 0 0 4px;line-height:1.6;&quot;&gt;&lt;font size=&quot;3&quot;&gt;name = Hat&lt;/font&gt;&lt;/p&gt;&lt;p style=&quot;margin:0 0 0 4px;line-height:1.6;&quot;&gt;&lt;font size=&quot;3&quot;&gt;type = Clothing&lt;/font&gt;&lt;/p&gt;&lt;p style=&quot;margin:0 0 0 4px;line-height:1.6;&quot;&gt;&lt;font size=&quot;3&quot;&gt;owner =&amp;nbsp;Scooperfield&lt;/font&gt;&lt;/p&gt;&lt;p style=&quot;margin:0 0 0 4px;line-height:1.6;&quot;&gt;&lt;font size=&quot;3&quot;&gt;mass = 0.1f&lt;/font&gt;&lt;/p&gt;&lt;p style=&quot;margin:0 0 0 4px;line-height:1.6;&quot;&gt;&lt;font size=&quot;3&quot;&gt;status = NEW&lt;/font&gt;&lt;/p&gt;&lt;p style=&quot;margin:0 0 0 4px;line-height:1.6;&quot;&gt;&lt;font size=&quot;3&quot;&gt;color = Black&lt;/font&gt;&lt;/p&gt;&lt;hr size=&quot;1&quot;&gt;&lt;p style=&quot;margin:0 0 0 4px;line-height:1.6;&quot;&gt;&lt;font size=&quot;3&quot;&gt;+ &lt;b&gt;Hat&lt;/b&gt;(): void&lt;/font&gt;&lt;/p&gt;" style="verticalAlign=top;align=left;overflow=fill;fontSize=14;fontFamily=Helvetica;html=1;rounded=0;shadow=1;comic=0;labelBackgroundColor=none;strokeWidth=1;strokeColor=#00FF00;" parent="1" vertex="1">
          <mxGeometry x="-480" y="-156.25" width="180" height="250" as="geometry" />
        </mxCell>
        <mxCell id="yoIGJlYAwWlr1iCUXd0q-11" value="&lt;p style=&quot;margin:0px;margin-top:4px;text-align:center;&quot;&gt;&lt;/p&gt;&lt;p style=&quot;text-align: center; margin: 0px 0px 0px 4px; line-height: 1.6;&quot;&gt;&lt;font style=&quot;font-size: 18px;&quot;&gt;&lt;b style=&quot;background-color: initial;&quot;&gt;(C)&lt;/b&gt;&lt;span style=&quot;background-color: initial;&quot;&gt;&lt;b&gt;&amp;nbsp;&lt;/b&gt;&lt;/span&gt;&lt;span style=&quot;background-color: initial; text-align: left;&quot;&gt;&lt;b&gt;Toothpaste&lt;/b&gt;&lt;/span&gt;&lt;/font&gt;&lt;/p&gt;&lt;hr size=&quot;1&quot;&gt;&lt;p style=&quot;margin:0 0 0 4px;line-height:1.6;&quot;&gt;&lt;font size=&quot;3&quot;&gt;name = Toothpaste&lt;/font&gt;&lt;/p&gt;&lt;p style=&quot;margin:0 0 0 4px;line-height:1.6;&quot;&gt;&lt;font size=&quot;3&quot;&gt;type = Personal&lt;/font&gt;&lt;/p&gt;&lt;p style=&quot;margin:0 0 0 4px;line-height:1.6;&quot;&gt;&lt;font size=&quot;3&quot;&gt;owner =&amp;nbsp;Scooperfield&lt;/font&gt;&lt;/p&gt;&lt;p style=&quot;margin:0 0 0 4px;line-height:1.6;&quot;&gt;&lt;font size=&quot;3&quot;&gt;mass = 0.07f&lt;/font&gt;&lt;/p&gt;&lt;p style=&quot;margin:0 0 0 4px;line-height:1.6;&quot;&gt;&lt;font size=&quot;3&quot;&gt;status = NEW&lt;/font&gt;&lt;/p&gt;&lt;p style=&quot;margin:0 0 0 4px;line-height:1.6;&quot;&gt;&lt;font size=&quot;3&quot;&gt;color = Blue&lt;/font&gt;&lt;/p&gt;&lt;hr size=&quot;1&quot;&gt;&lt;p style=&quot;margin:0 0 0 4px;line-height:1.6;&quot;&gt;&lt;font size=&quot;3&quot;&gt;+ &lt;b&gt;Toothpaste&lt;/b&gt;(): void&lt;/font&gt;&lt;/p&gt;" style="verticalAlign=top;align=left;overflow=fill;fontSize=14;fontFamily=Helvetica;html=1;rounded=0;shadow=1;comic=0;labelBackgroundColor=none;strokeWidth=1;strokeColor=#00FF00;" parent="1" vertex="1">
          <mxGeometry x="-110" y="-155" width="180" height="258.75" as="geometry" />
        </mxCell>
        <mxCell id="yoIGJlYAwWlr1iCUXd0q-12" value="&lt;p style=&quot;margin:0px;margin-top:4px;text-align:center;&quot;&gt;&lt;/p&gt;&lt;p style=&quot;text-align: center; margin: 0px 0px 0px 4px; line-height: 1.6;&quot;&gt;&lt;font style=&quot;font-size: 18px;&quot;&gt;&lt;b style=&quot;background-color: initial;&quot;&gt;(C)&lt;/b&gt;&lt;span style=&quot;background-color: initial;&quot;&gt;&lt;b&gt;&amp;nbsp;&lt;/b&gt;&lt;/span&gt;&lt;span style=&quot;background-color: initial; text-align: left;&quot;&gt;&lt;b&gt;Toothbrush&lt;/b&gt;&lt;/span&gt;&lt;/font&gt;&lt;/p&gt;&lt;hr size=&quot;1&quot;&gt;&lt;p style=&quot;margin:0 0 0 4px;line-height:1.6;&quot;&gt;&lt;font size=&quot;3&quot;&gt;name = Toothbrush&lt;/font&gt;&lt;/p&gt;&lt;p style=&quot;margin:0 0 0 4px;line-height:1.6;&quot;&gt;&lt;font size=&quot;3&quot;&gt;type = Personal&lt;/font&gt;&lt;/p&gt;&lt;p style=&quot;margin:0 0 0 4px;line-height:1.6;&quot;&gt;&lt;font size=&quot;3&quot;&gt;owner =&amp;nbsp;Scooperfield&lt;/font&gt;&lt;/p&gt;&lt;p style=&quot;margin:0 0 0 4px;line-height:1.6;&quot;&gt;&lt;font size=&quot;3&quot;&gt;mass = 0.05f&lt;/font&gt;&lt;/p&gt;&lt;p style=&quot;margin:0 0 0 4px;line-height:1.6;&quot;&gt;&lt;font size=&quot;3&quot;&gt;status = NEW&lt;/font&gt;&lt;/p&gt;&lt;p style=&quot;margin:0 0 0 4px;line-height:1.6;&quot;&gt;&lt;font size=&quot;3&quot;&gt;color = Green&lt;/font&gt;&lt;/p&gt;&lt;hr size=&quot;1&quot;&gt;&lt;p style=&quot;margin:0 0 0 4px;line-height:1.6;&quot;&gt;&lt;font size=&quot;3&quot;&gt;+ &lt;b&gt;Toothbrush&lt;/b&gt;(): void&lt;/font&gt;&lt;/p&gt;" style="verticalAlign=top;align=left;overflow=fill;fontSize=14;fontFamily=Helvetica;html=1;rounded=0;shadow=1;comic=0;labelBackgroundColor=none;strokeWidth=1;strokeColor=#00FF00;" parent="1" vertex="1">
          <mxGeometry x="150" y="-156.25" width="180" height="260" as="geometry" />
        </mxCell>
        <mxCell id="yoIGJlYAwWlr1iCUXd0q-13" value="&lt;p style=&quot;margin:0px;margin-top:4px;text-align:center;&quot;&gt;&lt;/p&gt;&lt;p style=&quot;text-align: center; margin: 0px 0px 0px 4px; line-height: 1.6;&quot;&gt;&lt;font style=&quot;font-size: 18px;&quot;&gt;&lt;b style=&quot;background-color: initial;&quot;&gt;(C)&lt;/b&gt;&lt;span style=&quot;background-color: initial;&quot;&gt;&lt;b&gt;&amp;nbsp;Soap&lt;/b&gt;&lt;/span&gt;&lt;/font&gt;&lt;/p&gt;&lt;hr size=&quot;1&quot;&gt;&lt;p style=&quot;margin:0 0 0 4px;line-height:1.6;&quot;&gt;&lt;font size=&quot;3&quot;&gt;name =&amp;nbsp;&lt;span style=&quot;background-color: initial; text-align: center;&quot;&gt;Soap&lt;/span&gt;&lt;/font&gt;&lt;/p&gt;&lt;p style=&quot;margin:0 0 0 4px;line-height:1.6;&quot;&gt;&lt;font size=&quot;3&quot;&gt;type = Personal&lt;/font&gt;&lt;/p&gt;&lt;p style=&quot;margin:0 0 0 4px;line-height:1.6;&quot;&gt;&lt;font size=&quot;3&quot;&gt;owner =&amp;nbsp;Scooperfield&lt;/font&gt;&lt;/p&gt;&lt;p style=&quot;margin:0 0 0 4px;line-height:1.6;&quot;&gt;&lt;font size=&quot;3&quot;&gt;mass = 0.15f&lt;/font&gt;&lt;/p&gt;&lt;p style=&quot;margin:0 0 0 4px;line-height:1.6;&quot;&gt;&lt;font size=&quot;3&quot;&gt;status = NEW&lt;/font&gt;&lt;/p&gt;&lt;p style=&quot;margin:0 0 0 4px;line-height:1.6;&quot;&gt;&lt;font size=&quot;3&quot;&gt;color = White&lt;/font&gt;&lt;/p&gt;&lt;hr size=&quot;1&quot;&gt;&lt;p style=&quot;margin:0 0 0 4px;line-height:1.6;&quot;&gt;&lt;font size=&quot;3&quot;&gt;+&amp;nbsp;&lt;b style=&quot;text-align: center;&quot;&gt;Soap&lt;/b&gt;(): void&lt;/font&gt;&lt;/p&gt;" style="verticalAlign=top;align=left;overflow=fill;fontSize=14;fontFamily=Helvetica;html=1;rounded=0;shadow=1;comic=0;labelBackgroundColor=none;strokeWidth=1;strokeColor=#00FF00;" parent="1" vertex="1">
          <mxGeometry x="150" y="145" width="180" height="248.75" as="geometry" />
        </mxCell>
        <mxCell id="yoIGJlYAwWlr1iCUXd0q-14" value="&lt;p style=&quot;margin:0px;margin-top:4px;text-align:center;&quot;&gt;&lt;/p&gt;&lt;p style=&quot;text-align: center; margin: 0px 0px 0px 4px; line-height: 1.6;&quot;&gt;&lt;font style=&quot;font-size: 18px;&quot;&gt;&lt;b style=&quot;background-color: initial;&quot;&gt;(C)&lt;/b&gt;&lt;span style=&quot;background-color: initial;&quot;&gt;&lt;b&gt;&amp;nbsp;&lt;/b&gt;&lt;/span&gt;&lt;span style=&quot;background-color: initial; text-align: left;&quot;&gt;&lt;b&gt;KrabsSoap&lt;/b&gt;&lt;/span&gt;&lt;/font&gt;&lt;/p&gt;&lt;hr size=&quot;1&quot;&gt;&lt;p style=&quot;margin:0 0 0 4px;line-height:1.6;&quot;&gt;&lt;font size=&quot;3&quot;&gt;name =&amp;nbsp;&lt;span style=&quot;background-color: initial;&quot;&gt;KrabsSoap&lt;/span&gt;&lt;/font&gt;&lt;/p&gt;&lt;p style=&quot;margin:0 0 0 4px;line-height:1.6;&quot;&gt;&lt;font size=&quot;3&quot;&gt;type = Personal&lt;/font&gt;&lt;/p&gt;&lt;p style=&quot;margin:0 0 0 4px;line-height:1.6;&quot;&gt;&lt;font size=&quot;3&quot;&gt;owner =&amp;nbsp;&lt;span style=&quot;background-color: initial;&quot;&gt;Krabs&lt;/span&gt;&lt;/font&gt;&lt;/p&gt;&lt;p style=&quot;margin:0 0 0 4px;line-height:1.6;&quot;&gt;&lt;font size=&quot;3&quot;&gt;mass = 0.2f&lt;/font&gt;&lt;/p&gt;&lt;p style=&quot;margin:0 0 0 4px;line-height:1.6;&quot;&gt;&lt;font size=&quot;3&quot;&gt;status = NEW&lt;/font&gt;&lt;/p&gt;&lt;p style=&quot;margin:0 0 0 4px;line-height:1.6;&quot;&gt;&lt;font size=&quot;3&quot;&gt;color = White&lt;/font&gt;&lt;/p&gt;&lt;hr size=&quot;1&quot;&gt;&lt;p style=&quot;margin:0 0 0 4px;line-height:1.6;&quot;&gt;&lt;font size=&quot;3&quot;&gt;+&amp;nbsp;&lt;b&gt;KrabsSoap&lt;/b&gt;(): void&lt;/font&gt;&lt;/p&gt;" style="verticalAlign=top;align=left;overflow=fill;fontSize=14;fontFamily=Helvetica;html=1;rounded=0;shadow=1;comic=0;labelBackgroundColor=none;strokeWidth=1;strokeColor=#00FF00;" parent="1" vertex="1">
          <mxGeometry x="-340" y="295" width="180" height="248.75" as="geometry" />
        </mxCell>
        <mxCell id="yoIGJlYAwWlr1iCUXd0q-15" value="&lt;p style=&quot;margin:0px;margin-top:4px;text-align:center;&quot;&gt;&lt;/p&gt;&lt;p style=&quot;text-align: center; margin: 0px 0px 0px 4px; line-height: 1.6;&quot;&gt;&lt;font style=&quot;font-size: 18px;&quot;&gt;&lt;b style=&quot;background-color: initial;&quot;&gt;(C)&lt;/b&gt;&lt;span style=&quot;background-color: initial;&quot;&gt;&lt;b&gt;&amp;nbsp;&lt;/b&gt;&lt;/span&gt;&lt;span style=&quot;background-color: initial; text-align: left;&quot;&gt;&lt;b&gt;Towel&lt;/b&gt;&lt;/span&gt;&lt;/font&gt;&lt;/p&gt;&lt;hr size=&quot;1&quot;&gt;&lt;p style=&quot;margin:0 0 0 4px;line-height:1.6;&quot;&gt;&lt;font size=&quot;3&quot;&gt;name =&amp;nbsp;&lt;span style=&quot;background-color: initial;&quot;&gt;Towel&lt;/span&gt;&lt;/font&gt;&lt;/p&gt;&lt;p style=&quot;margin:0 0 0 4px;line-height:1.6;&quot;&gt;&lt;font size=&quot;3&quot;&gt;type = Personal&lt;/font&gt;&lt;/p&gt;&lt;p style=&quot;margin:0 0 0 4px;line-height:1.6;&quot;&gt;&lt;font size=&quot;3&quot;&gt;owner =&amp;nbsp;Scooperfield&lt;/font&gt;&lt;/p&gt;&lt;p style=&quot;margin:0 0 0 4px;line-height:1.6;&quot;&gt;&lt;font size=&quot;3&quot;&gt;mass = 0.5f&lt;/font&gt;&lt;/p&gt;&lt;p style=&quot;margin:0 0 0 4px;line-height:1.6;&quot;&gt;&lt;font size=&quot;3&quot;&gt;status = NEW&lt;/font&gt;&lt;/p&gt;&lt;p style=&quot;margin:0 0 0 4px;line-height:1.6;&quot;&gt;&lt;font size=&quot;3&quot;&gt;color = White&lt;/font&gt;&lt;/p&gt;&lt;hr size=&quot;1&quot;&gt;&lt;p style=&quot;margin:0 0 0 4px;line-height:1.6;&quot;&gt;&lt;font size=&quot;3&quot;&gt;+ &lt;b&gt;Towel&lt;/b&gt;(): void&lt;/font&gt;&lt;/p&gt;" style="verticalAlign=top;align=left;overflow=fill;fontSize=14;fontFamily=Helvetica;html=1;rounded=0;shadow=1;comic=0;labelBackgroundColor=none;strokeWidth=1;strokeColor=#00FF00;" parent="1" vertex="1">
          <mxGeometry x="370" y="3.75" width="180" height="240" as="geometry" />
        </mxCell>
        <mxCell id="yoIGJlYAwWlr1iCUXd0q-16" value="&lt;p style=&quot;margin:0px;margin-top:4px;text-align:center;&quot;&gt;&lt;/p&gt;&lt;p style=&quot;text-align: center; margin: 0px 0px 0px 4px; line-height: 1.6;&quot;&gt;&lt;font style=&quot;font-size: 18px;&quot;&gt;&lt;b style=&quot;background-color: initial;&quot;&gt;(C)&lt;/b&gt;&lt;span style=&quot;background-color: initial;&quot;&gt;&lt;b&gt;&amp;nbsp;&lt;/b&gt;&lt;/span&gt;&lt;span style=&quot;background-color: initial; text-align: left;&quot;&gt;&lt;b&gt;Handkerchief&lt;/b&gt;&lt;/span&gt;&lt;/font&gt;&lt;/p&gt;&lt;hr size=&quot;1&quot;&gt;&lt;p style=&quot;margin:0 0 0 4px;line-height:1.6;&quot;&gt;&lt;font size=&quot;3&quot;&gt;name =&amp;nbsp;&lt;span style=&quot;background-color: initial;&quot;&gt;Handkerchief&lt;/span&gt;&lt;/font&gt;&lt;/p&gt;&lt;p style=&quot;margin:0 0 0 4px;line-height:1.6;&quot;&gt;&lt;font size=&quot;3&quot;&gt;type = Personal&lt;/font&gt;&lt;/p&gt;&lt;p style=&quot;margin:0 0 0 4px;line-height:1.6;&quot;&gt;&lt;font size=&quot;3&quot;&gt;owner =&amp;nbsp;Scooperfield&lt;/font&gt;&lt;/p&gt;&lt;p style=&quot;margin:0 0 0 4px;line-height:1.6;&quot;&gt;&lt;font size=&quot;3&quot;&gt;mass = 0.2f&lt;/font&gt;&lt;/p&gt;&lt;p style=&quot;margin:0 0 0 4px;line-height:1.6;&quot;&gt;&lt;font size=&quot;3&quot;&gt;status = NEW&lt;/font&gt;&lt;/p&gt;&lt;p style=&quot;margin:0 0 0 4px;line-height:1.6;&quot;&gt;&lt;font size=&quot;3&quot;&gt;color = White&lt;/font&gt;&lt;/p&gt;&lt;hr size=&quot;1&quot;&gt;&lt;p style=&quot;margin:0 0 0 4px;line-height:1.6;&quot;&gt;&lt;font size=&quot;3&quot;&gt;+ &lt;b&gt;Handkerchief&lt;/b&gt;(): void&lt;/font&gt;&lt;/p&gt;" style="verticalAlign=top;align=left;overflow=fill;fontSize=14;fontFamily=Helvetica;html=1;rounded=0;shadow=1;comic=0;labelBackgroundColor=none;strokeWidth=1;strokeColor=#00FF00;" parent="1" vertex="1">
          <mxGeometry x="370" y="295" width="180" height="248.75" as="geometry" />
        </mxCell>
        <mxCell id="yoIGJlYAwWlr1iCUXd0q-17" value="&lt;p style=&quot;margin:0px;margin-top:4px;text-align:center;&quot;&gt;&lt;/p&gt;&lt;p style=&quot;text-align: center; margin: 0px 0px 0px 4px; line-height: 1.6;&quot;&gt;&lt;font style=&quot;font-size: 18px;&quot;&gt;&lt;b style=&quot;background-color: initial;&quot;&gt;(C)&lt;/b&gt;&lt;span style=&quot;background-color: initial;&quot;&gt;&lt;b&gt;&amp;nbsp;&lt;/b&gt;&lt;/span&gt;&lt;span style=&quot;background-color: initial; text-align: left;&quot;&gt;&lt;b&gt;Socks&lt;/b&gt;&lt;/span&gt;&lt;/font&gt;&lt;/p&gt;&lt;hr size=&quot;1&quot;&gt;&lt;p style=&quot;margin:0 0 0 4px;line-height:1.6;&quot;&gt;&lt;font size=&quot;3&quot;&gt;name =&amp;nbsp;&lt;span style=&quot;background-color: initial;&quot;&gt;Handkerchief&lt;/span&gt;&lt;/font&gt;&lt;/p&gt;&lt;p style=&quot;margin:0 0 0 4px;line-height:1.6;&quot;&gt;&lt;font size=&quot;3&quot;&gt;type =&amp;nbsp;&lt;span style=&quot;background-color: initial;&quot;&gt;Clothing&lt;/span&gt;&lt;/font&gt;&lt;/p&gt;&lt;p style=&quot;margin:0 0 0 4px;line-height:1.6;&quot;&gt;&lt;font size=&quot;3&quot;&gt;owner =&amp;nbsp;Scooperfield&lt;/font&gt;&lt;/p&gt;&lt;p style=&quot;margin:0 0 0 4px;line-height:1.6;&quot;&gt;&lt;font size=&quot;3&quot;&gt;mass = 0.1f&lt;/font&gt;&lt;/p&gt;&lt;p style=&quot;margin:0 0 0 4px;line-height:1.6;&quot;&gt;&lt;font size=&quot;3&quot;&gt;status = NEW&lt;/font&gt;&lt;/p&gt;&lt;p style=&quot;margin:0 0 0 4px;line-height:1.6;&quot;&gt;&lt;font size=&quot;3&quot;&gt;color = Brown&lt;/font&gt;&lt;/p&gt;&lt;hr size=&quot;1&quot;&gt;&lt;p style=&quot;margin:0 0 0 4px;line-height:1.6;&quot;&gt;&lt;font size=&quot;3&quot;&gt;+&amp;nbsp;&lt;b&gt;Socks&lt;/b&gt;(): void&lt;/font&gt;&lt;/p&gt;" style="verticalAlign=top;align=left;overflow=fill;fontSize=14;fontFamily=Helvetica;html=1;rounded=0;shadow=1;comic=0;labelBackgroundColor=none;strokeWidth=1;strokeColor=#00FF00;" parent="1" vertex="1">
          <mxGeometry x="-110" y="145" width="180" height="248.75" as="geometry" />
        </mxCell>
        <mxCell id="yoIGJlYAwWlr1iCUXd0q-18" value="&lt;p style=&quot;margin:0px;margin-top:4px;text-align:center;&quot;&gt;&lt;/p&gt;&lt;p style=&quot;text-align: center; margin: 0px 0px 0px 4px; line-height: 1.6;&quot;&gt;&lt;font style=&quot;font-size: 18px;&quot;&gt;&lt;b style=&quot;background-color: initial;&quot;&gt;(C)&lt;/b&gt;&lt;span style=&quot;background-color: initial;&quot;&gt;&lt;b&gt;&amp;nbsp;&lt;/b&gt;&lt;/span&gt;&lt;span style=&quot;background-color: initial; text-align: left;&quot;&gt;&lt;b&gt;OldNail&lt;/b&gt;&lt;/span&gt;&lt;/font&gt;&lt;/p&gt;&lt;hr size=&quot;1&quot;&gt;&lt;p style=&quot;margin:0 0 0 4px;line-height:1.6;&quot;&gt;&lt;font size=&quot;3&quot;&gt;name =&amp;nbsp;&lt;span style=&quot;background-color: initial;&quot;&gt;OldNail&lt;/span&gt;&lt;/font&gt;&lt;/p&gt;&lt;p style=&quot;margin:0 0 0 4px;line-height:1.6;&quot;&gt;&lt;font size=&quot;3&quot;&gt;type =&amp;nbsp;&lt;span style=&quot;background-color: initial;&quot;&gt;Tool&lt;/span&gt;&lt;/font&gt;&lt;/p&gt;&lt;p style=&quot;margin:0 0 0 4px;line-height:1.6;&quot;&gt;&lt;font size=&quot;3&quot;&gt;owner =&amp;nbsp;Scooperfield&lt;/font&gt;&lt;/p&gt;&lt;p style=&quot;margin:0 0 0 4px;line-height:1.6;&quot;&gt;&lt;font size=&quot;3&quot;&gt;mass = 0.3f&lt;/font&gt;&lt;/p&gt;&lt;p style=&quot;margin:0 0 0 4px;line-height:1.6;&quot;&gt;&lt;font size=&quot;3&quot;&gt;status = OLD&lt;/font&gt;&lt;/p&gt;&lt;p style=&quot;margin:0 0 0 4px;line-height:1.6;&quot;&gt;&lt;font size=&quot;3&quot;&gt;color = Black&lt;/font&gt;&lt;/p&gt;&lt;hr size=&quot;1&quot;&gt;&lt;p style=&quot;margin:0 0 0 4px;line-height:1.6;&quot;&gt;&lt;font size=&quot;3&quot;&gt;+&amp;nbsp;&lt;b&gt;OldNail&lt;/b&gt;(): void&lt;/font&gt;&lt;/p&gt;" style="verticalAlign=top;align=left;overflow=fill;fontSize=14;fontFamily=Helvetica;html=1;rounded=0;shadow=1;comic=0;labelBackgroundColor=none;strokeWidth=1;strokeColor=#00FF00;" parent="1" vertex="1">
          <mxGeometry x="-110" y="445" width="180" height="248.75" as="geometry" />
        </mxCell>
        <mxCell id="yoIGJlYAwWlr1iCUXd0q-19" value="&lt;p style=&quot;margin:0px;margin-top:4px;text-align:center;&quot;&gt;&lt;/p&gt;&lt;p style=&quot;text-align: center; margin: 0px 0px 0px 4px; line-height: 1.6;&quot;&gt;&lt;font style=&quot;font-size: 18px;&quot;&gt;&lt;b style=&quot;background-color: initial;&quot;&gt;(C)&lt;/b&gt;&lt;span style=&quot;background-color: initial;&quot;&gt;&lt;b&gt;&amp;nbsp;&lt;/b&gt;&lt;/span&gt;&lt;span style=&quot;background-color: initial; text-align: left;&quot;&gt;&lt;b&gt;CopperWire&lt;/b&gt;&lt;/span&gt;&lt;/font&gt;&lt;/p&gt;&lt;hr size=&quot;1&quot;&gt;&lt;p style=&quot;margin:0 0 0 4px;line-height:1.6;&quot;&gt;&lt;font size=&quot;3&quot;&gt;name =&amp;nbsp;&lt;span style=&quot;background-color: initial;&quot;&gt;CopperWire&lt;/span&gt;&lt;/font&gt;&lt;/p&gt;&lt;p style=&quot;margin:0 0 0 4px;line-height:1.6;&quot;&gt;&lt;font size=&quot;3&quot;&gt;type =&amp;nbsp;&lt;span style=&quot;background-color: initial;&quot;&gt;Tool&lt;/span&gt;&lt;/font&gt;&lt;/p&gt;&lt;p style=&quot;margin:0 0 0 4px;line-height:1.6;&quot;&gt;&lt;font size=&quot;3&quot;&gt;owner =&amp;nbsp;Scooperfield&lt;/font&gt;&lt;/p&gt;&lt;p style=&quot;margin:0 0 0 4px;line-height:1.6;&quot;&gt;&lt;font size=&quot;3&quot;&gt;mass = 0.4f&lt;/font&gt;&lt;/p&gt;&lt;p style=&quot;margin:0 0 0 4px;line-height:1.6;&quot;&gt;&lt;font size=&quot;3&quot;&gt;status = NEW&lt;/font&gt;&lt;/p&gt;&lt;p style=&quot;margin:0 0 0 4px;line-height:1.6;&quot;&gt;&lt;font size=&quot;3&quot;&gt;color = Yellow&lt;/font&gt;&lt;/p&gt;&lt;hr size=&quot;1&quot;&gt;&lt;p style=&quot;margin:0 0 0 4px;line-height:1.6;&quot;&gt;&lt;font size=&quot;3&quot;&gt;+&amp;nbsp;&lt;b&gt;CopperWire&lt;/b&gt;(): void&lt;/font&gt;&lt;/p&gt;" style="verticalAlign=top;align=left;overflow=fill;fontSize=14;fontFamily=Helvetica;html=1;rounded=0;shadow=1;comic=0;labelBackgroundColor=none;strokeWidth=1;strokeColor=#00FF00;" parent="1" vertex="1">
          <mxGeometry x="150" y="445" width="180" height="248.75" as="geometry" />
        </mxCell>
        <mxCell id="yoIGJlYAwWlr1iCUXd0q-28" value="" style="endArrow=classic;html=1;rounded=0;exitX=1;exitY=0.5;exitDx=0;exitDy=0;entryX=0.5;entryY=1;entryDx=0;entryDy=0;" parent="1" source="yoIGJlYAwWlr1iCUXd0q-18" target="node18" edge="1">
          <mxGeometry width="50" height="50" relative="1" as="geometry">
            <mxPoint x="-50" y="590" as="sourcePoint" />
            <mxPoint y="540" as="targetPoint" />
            <Array as="points">
              <mxPoint x="110" y="569" />
              <mxPoint x="110" y="-240" />
              <mxPoint x="20" y="-240" />
            </Array>
          </mxGeometry>
        </mxCell>
        <mxCell id="yoIGJlYAwWlr1iCUXd0q-31" value="" style="endArrow=none;html=1;rounded=0;exitX=1;exitY=0.5;exitDx=0;exitDy=0;entryX=0;entryY=0.5;entryDx=0;entryDy=0;strokeColor=#000000;shadow=1;" parent="1" source="yoIGJlYAwWlr1iCUXd0q-17" target="yoIGJlYAwWlr1iCUXd0q-13" edge="1">
          <mxGeometry width="50" height="50" relative="1" as="geometry">
            <mxPoint x="180" y="255" as="sourcePoint" />
            <mxPoint x="230" y="205" as="targetPoint" />
          </mxGeometry>
        </mxCell>
        <mxCell id="yoIGJlYAwWlr1iCUXd0q-32" value="" style="endArrow=none;html=1;rounded=0;entryX=0;entryY=0.5;entryDx=0;entryDy=0;strokeColor=#000000;shadow=1;" parent="1" target="yoIGJlYAwWlr1iCUXd0q-15" edge="1">
          <mxGeometry width="50" height="50" relative="1" as="geometry">
            <mxPoint x="110" y="123.75" as="sourcePoint" />
            <mxPoint x="230" y="205" as="targetPoint" />
          </mxGeometry>
        </mxCell>
        <mxCell id="yoIGJlYAwWlr1iCUXd0q-33" value="" style="endArrow=none;html=1;rounded=0;exitX=1;exitY=0.5;exitDx=0;exitDy=0;entryX=0;entryY=0.5;entryDx=0;entryDy=0;strokeColor=#000000;shadow=1;" parent="1" source="yoIGJlYAwWlr1iCUXd0q-11" target="yoIGJlYAwWlr1iCUXd0q-12" edge="1">
          <mxGeometry width="50" height="50" relative="1" as="geometry">
            <mxPoint x="180" y="-15" as="sourcePoint" />
            <mxPoint x="230" y="-65" as="targetPoint" />
          </mxGeometry>
        </mxCell>
        <mxCell id="yoIGJlYAwWlr1iCUXd0q-34" value="" style="endArrow=none;html=1;rounded=0;exitX=1;exitY=0.5;exitDx=0;exitDy=0;entryX=0;entryY=0.5;entryDx=0;entryDy=0;" parent="1" source="yoIGJlYAwWlr1iCUXd0q-14" target="yoIGJlYAwWlr1iCUXd0q-16" edge="1">
          <mxGeometry width="50" height="50" relative="1" as="geometry">
            <mxPoint x="-460" y="261.25" as="sourcePoint" />
            <mxPoint x="-410" y="211.25" as="targetPoint" />
          </mxGeometry>
        </mxCell>
        <mxCell id="yoIGJlYAwWlr1iCUXd0q-42" value="" style="endArrow=classic;html=1;rounded=0;entryX=0.5;entryY=1;entryDx=0;entryDy=0;" parent="1" target="node11" edge="1">
          <mxGeometry width="50" height="50" relative="1" as="geometry">
            <mxPoint x="980" y="-50" as="sourcePoint" />
            <mxPoint x="720" y="-225" as="targetPoint" />
          </mxGeometry>
        </mxCell>
        <mxCell id="yoIGJlYAwWlr1iCUXd0q-43" value="" style="endArrow=none;html=1;rounded=0;exitX=1;exitY=0.5;exitDx=0;exitDy=0;entryX=0;entryY=0.5;entryDx=0;entryDy=0;" parent="1" source="node28" target="z7JIA7cdmUVg2Eins9XX-3" edge="1">
          <mxGeometry width="50" height="50" relative="1" as="geometry">
            <mxPoint x="970" y="-2.5" as="sourcePoint" />
            <mxPoint x="1020" y="-52.5" as="targetPoint" />
          </mxGeometry>
        </mxCell>
        <mxCell id="iWBeRTfewltvSb-JFVSI-1" value="&lt;p style=&quot;margin:0px;margin-top:4px;text-align:center;&quot;&gt;&lt;font style=&quot;font-size: 18px;&quot;&gt;&lt;b style=&quot;background-color: initial;&quot;&gt;(E)&amp;nbsp;&lt;/b&gt;&lt;span style=&quot;background-color: initial; text-align: left;&quot;&gt;&lt;b&gt;LightingStatus&lt;/b&gt;&lt;/span&gt;&lt;/font&gt;&lt;/p&gt;&lt;hr size=&quot;1&quot;&gt;&lt;p style=&quot;margin:0 0 0 4px;line-height:1.6;&quot;&gt;&lt;font size=&quot;3&quot;&gt;ON&lt;br&gt;OFF&lt;/font&gt;&lt;/p&gt;&lt;p style=&quot;margin:0 0 0 4px;line-height:1.6;&quot;&gt;&lt;br&gt;&lt;/p&gt;" style="verticalAlign=top;align=left;overflow=fill;fontSize=14;fontFamily=Helvetica;html=1;rounded=0;shadow=1;comic=0;labelBackgroundColor=none;strokeWidth=1;strokeColor=#FF8000;" parent="1" vertex="1">
          <mxGeometry x="1220" y="-312.81" width="220" height="105" as="geometry" />
        </mxCell>
        <mxCell id="iWBeRTfewltvSb-JFVSI-2" value="" style="endArrow=none;html=1;rounded=0;entryX=1;entryY=0.5;entryDx=0;entryDy=0;exitX=0;exitY=0.5;exitDx=0;exitDy=0;strokeColor=#FF8000;" parent="1" source="iWBeRTfewltvSb-JFVSI-1" target="node11" edge="1">
          <mxGeometry width="50" height="50" relative="1" as="geometry">
            <mxPoint x="1230" y="-607.81" as="sourcePoint" />
            <mxPoint x="1140" y="-442.81" as="targetPoint" />
          </mxGeometry>
        </mxCell>
        <mxCell id="iWBeRTfewltvSb-JFVSI-3" value="&lt;p style=&quot;margin:0px;margin-top:4px;text-align:center;&quot;&gt;&lt;font style=&quot;font-size: 18px;&quot;&gt;&lt;b style=&quot;background-color: initial;&quot;&gt;(A)&amp;nbsp;&lt;/b&gt;&lt;b style=&quot;text-align: left;&quot;&gt;Guest&lt;/b&gt;&lt;/font&gt;&lt;/p&gt;&lt;hr size=&quot;1&quot;&gt;&lt;p style=&quot;margin:0 0 0 4px;line-height:1.6;&quot;&gt;&lt;span style=&quot;background-color: initial;&quot;&gt;&lt;font size=&quot;3&quot;&gt;PersonType personType&lt;/font&gt;&lt;/span&gt;&lt;font style=&quot;background-color: initial;&quot; size=&quot;3&quot;&gt;&amp;nbsp;= GUEST&lt;/font&gt;&lt;/p&gt;&lt;hr size=&quot;1&quot;&gt;&lt;p style=&quot;margin:0 0 0 4px;line-height:1.6;&quot;&gt;&lt;font size=&quot;3&quot;&gt;&lt;b&gt;Guest&lt;/b&gt;(String name, int age, String gender,&lt;/font&gt;&lt;/p&gt;&lt;p style=&quot;margin:0 0 0 4px;line-height:1.6;&quot;&gt;&lt;font size=&quot;3&quot;&gt;HouseSpace location, double height,&amp;nbsp;&lt;/font&gt;&lt;/p&gt;&lt;p style=&quot;margin:0 0 0 4px;line-height:1.6;&quot;&gt;&lt;font size=&quot;3&quot;&gt;double weight, String language)&lt;br&gt;&lt;b&gt;putSoap&lt;/b&gt;(): void&lt;/font&gt;&lt;/p&gt;&lt;p style=&quot;margin:0 0 0 4px;line-height:1.6;&quot;&gt;&lt;font size=&quot;3&quot;&gt;&lt;b&gt;useSoap&lt;/b&gt;(Item item): void&lt;/font&gt;&lt;/p&gt;&lt;p style=&quot;margin:0 0 0 4px;line-height:1.6;&quot;&gt;&lt;font size=&quot;3&quot;&gt;&lt;b&gt;saveMoney&lt;/b&gt;(): void&lt;/font&gt;&lt;/p&gt;" style="verticalAlign=top;align=left;overflow=fill;fontSize=14;fontFamily=Helvetica;html=1;rounded=0;shadow=0;comic=0;labelBackgroundColor=none;strokeWidth=1;strokeColor=#3399FF;" parent="1" vertex="1">
          <mxGeometry x="-1435" y="150" width="320" height="237.5" as="geometry" />
        </mxCell>
        <mxCell id="iWBeRTfewltvSb-JFVSI-4" value="" style="endArrow=classic;html=1;rounded=0;entryX=0.25;entryY=1;entryDx=0;entryDy=0;exitX=0.5;exitY=0;exitDx=0;exitDy=0;" parent="1" source="iWBeRTfewltvSb-JFVSI-3" target="z7JIA7cdmUVg2Eins9XX-15" edge="1">
          <mxGeometry width="50" height="50" relative="1" as="geometry">
            <mxPoint x="-1500" y="430" as="sourcePoint" />
            <mxPoint x="-1040" y="60" as="targetPoint" />
          </mxGeometry>
        </mxCell>
        <mxCell id="iWBeRTfewltvSb-JFVSI-5" value="&lt;p style=&quot;margin: 4px 0px 0px; text-align: center;&quot;&gt;&lt;font style=&quot;font-size: 18px;&quot;&gt;&lt;b style=&quot;background-color: initial;&quot;&gt;(A) Host&lt;/b&gt;&lt;/font&gt;&lt;/p&gt;&lt;hr size=&quot;1&quot;&gt;&lt;p style=&quot;margin:0 0 0 4px;line-height:1.6;&quot;&gt;&lt;span style=&quot;background-color: initial;&quot;&gt;&lt;font size=&quot;3&quot;&gt;PersonType personType&lt;/font&gt;&lt;/span&gt;&lt;font style=&quot;background-color: initial;&quot; size=&quot;3&quot;&gt;&amp;nbsp;= HOST&lt;/font&gt;&lt;/p&gt;&lt;hr size=&quot;1&quot;&gt;&lt;p style=&quot;margin:0 0 0 4px;line-height:1.6;&quot;&gt;&lt;span style=&quot;background-color: initial; font-size: medium;&quot;&gt;&lt;b&gt;Host&lt;/b&gt;(String name, int age, String gender,&lt;/span&gt;&lt;/p&gt;&lt;p style=&quot;margin:0 0 0 4px;line-height:1.6;&quot;&gt;&lt;font size=&quot;3&quot;&gt;&amp;nbsp;HouseSpace location, double height,&amp;nbsp;&lt;/font&gt;&lt;/p&gt;&lt;p style=&quot;margin:0 0 0 4px;line-height:1.6;&quot;&gt;&lt;font size=&quot;3&quot;&gt;double weight, String language)&lt;/font&gt;&lt;/p&gt;&lt;p style=&quot;margin:0 0 0 4px;line-height:1.6;&quot;&gt;&lt;br&gt;&lt;/p&gt;" style="verticalAlign=top;align=left;overflow=fill;fontSize=14;fontFamily=Helvetica;html=1;rounded=0;shadow=0;comic=0;labelBackgroundColor=none;strokeWidth=1;strokeColor=#3399FF;" parent="1" vertex="1">
          <mxGeometry x="-1025" y="150" width="310" height="180" as="geometry" />
        </mxCell>
        <mxCell id="iWBeRTfewltvSb-JFVSI-6" value="" style="endArrow=classic;html=1;rounded=0;entryX=0.5;entryY=1;entryDx=0;entryDy=0;exitX=0.5;exitY=0;exitDx=0;exitDy=0;" parent="1" source="z7JIA7cdmUVg2Eins9XX-19" target="iWBeRTfewltvSb-JFVSI-5" edge="1">
          <mxGeometry width="50" height="50" relative="1" as="geometry">
            <mxPoint x="-1500" y="430" as="sourcePoint" />
            <mxPoint x="-1331" y="399" as="targetPoint" />
          </mxGeometry>
        </mxCell>
        <mxCell id="iWBeRTfewltvSb-JFVSI-7" value="&lt;p style=&quot;text-align: center; margin: 4px 0px 0px;&quot;&gt;&lt;font style=&quot;font-size: 18px;&quot;&gt;&lt;b&gt;(I)&amp;nbsp;&lt;/b&gt;&lt;/font&gt;&lt;span style=&quot;background-color: initial; font-size: 18px;&quot;&gt;&lt;b&gt;GuestActions&lt;/b&gt;&lt;/span&gt;&lt;/p&gt;&lt;hr style=&quot;text-align: center;&quot; size=&quot;1&quot;&gt;&lt;p style=&quot;margin:0 0 0 4px;line-height:1.6;&quot;&gt;&lt;font size=&quot;3&quot;&gt;+ &lt;b&gt;putSoap&lt;/b&gt;(): void&lt;/font&gt;&lt;/p&gt;&lt;p style=&quot;margin:0 0 0 4px;line-height:1.6;&quot;&gt;&lt;font size=&quot;3&quot;&gt;+&amp;nbsp;&lt;/font&gt;&lt;span style=&quot;background-color: initial;&quot;&gt;&lt;font size=&quot;3&quot;&gt;&lt;b&gt;useSoap(&lt;/b&gt;Item item)&lt;b&gt;: &lt;/b&gt;void&lt;/font&gt;&lt;/span&gt;&lt;/p&gt;&lt;p style=&quot;margin: 0px 0px 0px 4px; line-height: 1.6;&quot;&gt;&lt;font size=&quot;3&quot;&gt;+&amp;nbsp;&lt;b&gt;saveMoney&lt;/b&gt;(): void&lt;/font&gt;&lt;/p&gt;&lt;div&gt;&lt;font size=&quot;3&quot;&gt;&lt;br&gt;&lt;/font&gt;&lt;/div&gt;&lt;p style=&quot;margin:0 0 0 4px;line-height:1.6;&quot;&gt;&lt;br&gt;&lt;/p&gt;&lt;p style=&quot;margin: 0px 0px 0px 4px; line-height: 1.6;&quot;&gt;&lt;font size=&quot;3&quot;&gt;&lt;br&gt;&lt;/font&gt;&lt;/p&gt;&lt;p style=&quot;margin:0 0 0 4px;line-height:1.6;&quot;&gt;&lt;span style=&quot;background-color: initial;&quot; class=&quot;hljs-params&quot;&gt;&lt;br&gt;&lt;/span&gt;&lt;/p&gt;" style="verticalAlign=top;align=left;overflow=fill;fontSize=14;fontFamily=Helvetica;html=1;rounded=0;shadow=1;comic=0;labelBackgroundColor=none;strokeWidth=1;strokeColor=#990099;" parent="1" vertex="1">
          <mxGeometry x="-1735" y="201.25" width="265" height="135" as="geometry" />
        </mxCell>
        <mxCell id="iWBeRTfewltvSb-JFVSI-8" value="&lt;p style=&quot;text-align: center; margin: 4px 0px 0px;&quot;&gt;&lt;font style=&quot;font-size: 18px;&quot;&gt;&lt;b&gt;(I)&amp;nbsp;&lt;/b&gt;&lt;/font&gt;&lt;span style=&quot;background-color: initial; font-size: 18px;&quot;&gt;&lt;b&gt;ItemActions&lt;/b&gt;&lt;/span&gt;&lt;/p&gt;&lt;hr style=&quot;text-align: center;&quot; size=&quot;1&quot;&gt;&lt;p style=&quot;margin:0 0 0 4px;line-height:1.6;&quot;&gt;&lt;font size=&quot;3&quot;&gt;+ &lt;b&gt;hideItem&lt;/b&gt;(&lt;/font&gt;&lt;span style=&quot;background-color: initial;&quot;&gt;&lt;font size=&quot;3&quot;&gt;List&amp;lt;Item&amp;gt; items)&lt;/font&gt;&lt;/span&gt;&lt;span style=&quot;font-size: medium; background-color: initial;&quot;&gt;: void&lt;/span&gt;&lt;/p&gt;&lt;p style=&quot;margin:0 0 0 4px;line-height:1.6;&quot;&gt;&lt;font size=&quot;3&quot;&gt;+&amp;nbsp;&lt;/font&gt;&lt;span style=&quot;background-color: initial;&quot;&gt;&lt;font size=&quot;3&quot;&gt;&lt;b&gt;compareItem(&lt;/b&gt;Item item1, Item item2)&lt;b&gt;: &lt;/b&gt;void&lt;/font&gt;&lt;/span&gt;&lt;/p&gt;&lt;p style=&quot;margin: 0px 0px 0px 4px; line-height: 1.6;&quot;&gt;&lt;font size=&quot;3&quot;&gt;+ &lt;b&gt;addItems&lt;/b&gt;(&lt;/font&gt;&lt;span style=&quot;background-color: initial;&quot;&gt;&lt;font size=&quot;3&quot;&gt;List&amp;lt;Item&amp;gt; itemsToAdd, Hat hat)&lt;/font&gt;&lt;/span&gt;&lt;span style=&quot;font-size: medium; background-color: initial;&quot;&gt;: void&lt;/span&gt;&lt;/p&gt;&lt;div&gt;&lt;p style=&quot;margin: 0px 0px 0px 4px; line-height: 1.6;&quot;&gt;&lt;font size=&quot;3&quot;&gt;+ &lt;b&gt;takeItems&lt;/b&gt;(&lt;/font&gt;&lt;span style=&quot;background-color: initial;&quot;&gt;&lt;font size=&quot;3&quot;&gt;List&amp;lt;Item&amp;gt; itemsToAdd, Hat hat)&lt;/font&gt;&lt;/span&gt;&lt;span style=&quot;font-size: medium; background-color: initial;&quot;&gt;: void&lt;/span&gt;&lt;/p&gt;&lt;/div&gt;&lt;div&gt;&lt;span style=&quot;font-size: medium; background-color: initial;&quot;&gt;&lt;br&gt;&lt;/span&gt;&lt;/div&gt;&lt;div&gt;&lt;span style=&quot;font-size: medium; background-color: initial;&quot;&gt;&lt;br&gt;&lt;/span&gt;&lt;/div&gt;" style="verticalAlign=top;align=left;overflow=fill;fontSize=14;fontFamily=Helvetica;html=1;rounded=0;shadow=1;comic=0;labelBackgroundColor=none;strokeWidth=1;strokeColor=#990099;" parent="1" vertex="1">
          <mxGeometry x="-1750" y="-240" width="385" height="160" as="geometry" />
        </mxCell>
        <mxCell id="iWBeRTfewltvSb-JFVSI-9" value="&lt;p style=&quot;text-align: center; margin: 4px 0px 0px;&quot;&gt;&lt;font style=&quot;font-size: 18px;&quot;&gt;&lt;b&gt;(I)&amp;nbsp;&lt;/b&gt;&lt;/font&gt;&lt;span style=&quot;background-color: initial; font-size: 18px;&quot;&gt;&lt;b&gt;LightActions&lt;/b&gt;&lt;/span&gt;&lt;/p&gt;&lt;hr style=&quot;text-align: center;&quot; size=&quot;1&quot;&gt;&lt;p style=&quot;margin:0 0 0 4px;line-height:1.6;&quot;&gt;&lt;font size=&quot;3&quot;&gt;+ &lt;b&gt;turnOffLight&lt;/b&gt;(): void&lt;/font&gt;&lt;/p&gt;&lt;p style=&quot;margin:0 0 0 4px;line-height:1.6;&quot;&gt;&lt;font size=&quot;3&quot;&gt;+&amp;nbsp;&lt;/font&gt;&lt;span style=&quot;background-color: initial;&quot;&gt;&lt;font size=&quot;3&quot;&gt;&lt;b&gt;turnOnLight(&lt;/b&gt;)&lt;b&gt;: &lt;/b&gt;void&lt;/font&gt;&lt;/span&gt;&lt;/p&gt;&lt;p style=&quot;margin:0 0 0 4px;line-height:1.6;&quot;&gt;&lt;br&gt;&lt;/p&gt;&lt;p style=&quot;margin: 0px 0px 0px 4px; line-height: 1.6;&quot;&gt;&lt;font size=&quot;3&quot;&gt;&lt;br&gt;&lt;/font&gt;&lt;/p&gt;&lt;p style=&quot;margin:0 0 0 4px;line-height:1.6;&quot;&gt;&lt;span style=&quot;background-color: initial;&quot; class=&quot;hljs-params&quot;&gt;&lt;br&gt;&lt;/span&gt;&lt;/p&gt;" style="verticalAlign=top;align=left;overflow=fill;fontSize=14;fontFamily=Helvetica;html=1;rounded=0;shadow=1;comic=0;labelBackgroundColor=none;strokeWidth=1;strokeColor=#990099;" parent="1" vertex="1">
          <mxGeometry x="-1555" y="-365" width="190" height="100" as="geometry" />
        </mxCell>
        <mxCell id="iWBeRTfewltvSb-JFVSI-10" value="&lt;p style=&quot;text-align: center; margin: 4px 0px 0px;&quot;&gt;&lt;font style=&quot;font-size: 18px;&quot;&gt;&lt;b&gt;(I)&amp;nbsp;&lt;/b&gt;&lt;/font&gt;&lt;span style=&quot;background-color: initial; text-align: left; font-size: 18px;&quot;&gt;&lt;b&gt;PhysicalActions&lt;/b&gt;&lt;/span&gt;&lt;/p&gt;&lt;hr style=&quot;text-align: center;&quot; size=&quot;1&quot;&gt;&lt;p style=&quot;margin:0 0 0 4px;line-height:1.6;&quot;&gt;&lt;font size=&quot;3&quot;&gt;+ &lt;b&gt;moveTo&lt;/b&gt;(&lt;/font&gt;&lt;span style=&quot;background-color: initial;&quot;&gt;&lt;font size=&quot;3&quot;&gt;HouseSpace newLocation&lt;/font&gt;&lt;/span&gt;&lt;span style=&quot;font-size: medium; background-color: initial;&quot;&gt;): void&lt;/span&gt;&lt;/p&gt;&lt;p style=&quot;margin:0 0 0 4px;line-height:1.6;&quot;&gt;&lt;font size=&quot;3&quot;&gt;+&amp;nbsp;&lt;/font&gt;&lt;span style=&quot;background-color: initial;&quot;&gt;&lt;font size=&quot;3&quot;&gt;&lt;b&gt;pullHat(&lt;/b&gt;Hat hat)&lt;b&gt;: &lt;/b&gt;void&lt;/font&gt;&lt;/span&gt;&lt;/p&gt;&lt;p style=&quot;margin:0 0 0 4px;line-height:1.6;&quot;&gt;&lt;br&gt;&lt;/p&gt;&lt;p style=&quot;margin: 0px 0px 0px 4px; line-height: 1.6;&quot;&gt;&lt;font size=&quot;3&quot;&gt;&lt;br&gt;&lt;/font&gt;&lt;/p&gt;&lt;p style=&quot;margin:0 0 0 4px;line-height:1.6;&quot;&gt;&lt;span style=&quot;background-color: initial;&quot; class=&quot;hljs-params&quot;&gt;&lt;br&gt;&lt;/span&gt;&lt;/p&gt;" style="verticalAlign=top;align=left;overflow=fill;fontSize=14;fontFamily=Helvetica;html=1;rounded=0;shadow=1;comic=0;labelBackgroundColor=none;strokeWidth=1;strokeColor=#990099;" parent="1" vertex="1">
          <mxGeometry x="-1685" y="-640" width="320" height="100" as="geometry" />
        </mxCell>
        <mxCell id="iWBeRTfewltvSb-JFVSI-12" value="&lt;p style=&quot;text-align: center; margin: 4px 0px 0px;&quot;&gt;&lt;font style=&quot;font-size: 18px;&quot;&gt;&lt;b&gt;(I)&amp;nbsp;&lt;/b&gt;&lt;/font&gt;&lt;span style=&quot;background-color: initial; text-align: left; font-size: 18px;&quot;&gt;&lt;b&gt;ViewActions&amp;nbsp;&lt;/b&gt;&lt;/span&gt;&lt;span style=&quot;background-color: initial; color: rgba(0, 0, 0, 0); font-family: monospace; font-size: 0px; text-align: left;&quot;&gt;%3CmxGraphModel%3E%3Croot%3E%3CmxCell%20id%3D%220%22%2F%3E%3CmxCell%20id%3D%221%22%20parent%3D%220%22%2F%3E%3CmxCell%20id%3D%222%22%20value%3D%22%26lt%3Bp%20style%3D%26quot%3Btext-align%3A%20center%3B%20margin%3A%204px%200px%200px%3B%26quot%3B%26gt%3B%26lt%3Bfont%20style%3D%26quot%3Bfont-size%3A%2018px%3B%26quot%3B%26gt%3B%26lt%3Bb%26gt%3B(I)%26amp%3Bnbsp%3B%26lt%3B%2Fb%26gt%3B%26lt%3B%2Ffont%26gt%3B%26lt%3Bspan%20style%3D%26quot%3Bbackground-color%3A%20initial%3B%20font-size%3A%2018px%3B%26quot%3B%26gt%3B%26lt%3Bb%26gt%3BEmotionalActions%26lt%3B%2Fb%26gt%3B%26lt%3B%2Fspan%26gt%3B%26lt%3B%2Fp%26gt%3B%26lt%3Bhr%20style%3D%26quot%3Btext-align%3A%20center%3B%26quot%3B%20size%3D%26quot%3B1%26quot%3B%26gt%3B%26lt%3Bp%20style%3D%26quot%3Bmargin%3A0%200%200%204px%3Bline-height%3A1.6%3B%26quot%3B%26gt%3B%26lt%3Bfont%20size%3D%26quot%3B3%26quot%3B%26gt%3B%2B%20%26lt%3Bb%26gt%3Bsmile%26lt%3B%2Fb%26gt%3B()%3A%20void%26lt%3B%2Ffont%26gt%3B%26lt%3B%2Fp%26gt%3B%26lt%3Bp%20style%3D%26quot%3Bmargin%3A0%200%200%204px%3Bline-height%3A1.6%3B%26quot%3B%26gt%3B%26lt%3Bfont%20size%3D%26quot%3B3%26quot%3B%26gt%3B%2B%26amp%3Bnbsp%3B%26lt%3B%2Ffont%26gt%3B%26lt%3Bspan%20style%3D%26quot%3Bbackground-color%3A%20initial%3B%26quot%3B%26gt%3B%26lt%3Bfont%20size%3D%26quot%3B3%26quot%3B%26gt%3B%26lt%3Bb%26gt%3BthankTo(%26lt%3B%2Fb%26gt%3BPerson%20person)%26lt%3Bb%26gt%3B%3A%20%26lt%3B%2Fb%26gt%3Bvoid%26lt%3B%2Ffont%26gt%3B%26lt%3B%2Fspan%26gt%3B%26lt%3B%2Fp%26gt%3B%26lt%3Bp%20style%3D%26quot%3Bmargin%3A0%200%200%204px%3Bline-height%3A1.6%3B%26quot%3B%26gt%3B%26lt%3Bbr%26gt%3B%26lt%3B%2Fp%26gt%3B%26lt%3Bp%20style%3D%26quot%3Bmargin%3A%200px%200px%200px%204px%3B%20line-height%3A%201.6%3B%26quot%3B%26gt%3B%26lt%3Bfont%20size%3D%26quot%3B3%26quot%3B%26gt%3B%26lt%3Bbr%26gt%3B%26lt%3B%2Ffont%26gt%3B%26lt%3B%2Fp%26gt%3B%26lt%3Bp%20style%3D%26quot%3Bmargin%3A0%200%200%204px%3Bline-height%3A1.6%3B%26quot%3B%26gt%3B%26lt%3Bspan%20style%3D%26quot%3Bbackground-color%3A%20initial%3B%26quot%3B%20class%3D%26quot%3Bhljs-params%26quot%3B%26gt%3B%26lt%3Bbr%26gt%3B%26lt%3B%2Fspan%26gt%3B%26lt%3B%2Fp%26gt%3B%22%20style%3D%22verticalAlign%3Dtop%3Balign%3Dleft%3Boverflow%3Dfill%3BfontSize%3D14%3BfontFamily%3DHelvetica%3Bhtml%3D1%3Brounded%3D0%3Bshadow%3D1%3Bcomic%3D0%3BlabelBackgroundColor%3Dnone%3BstrokeWidth%3D1%3BstrokeColor%3D%23990099%3B%22%20vertex%3D%221%22%20parent%3D%221%22%3E%3CmxGeometry%20x%3D%22-1850%22%20y%3D%22550%22%20width%3D%22260%22%20height%3D%22100%22%20as%3D%22geometry%22%2F%3E%3C%2FmxCell%3E%3C%2Froot%3E%3C%2FmxGraphModel%3E&lt;/span&gt;&lt;/p&gt;&lt;hr style=&quot;text-align: center;&quot; size=&quot;1&quot;&gt;&lt;p style=&quot;margin:0 0 0 4px;line-height:1.6;&quot;&gt;&lt;font size=&quot;3&quot;&gt;+ &lt;b&gt;lookAround&lt;/b&gt;(): void&lt;/font&gt;&lt;/p&gt;&lt;p style=&quot;margin:0 0 0 4px;line-height:1.6;&quot;&gt;&lt;font size=&quot;3&quot;&gt;+&amp;nbsp;&lt;/font&gt;&lt;span style=&quot;background-color: initial;&quot;&gt;&lt;font size=&quot;3&quot;&gt;&lt;b&gt;lookAt(&lt;/b&gt;Person person)&lt;b&gt;: &lt;/b&gt;void&lt;/font&gt;&lt;/span&gt;&lt;/p&gt;&lt;p style=&quot;margin: 0px 0px 0px 4px; line-height: 1.6;&quot;&gt;&lt;font size=&quot;3&quot;&gt;+ &lt;b&gt;lookAtItem&lt;/b&gt;(&lt;/font&gt;&lt;span style=&quot;background-color: initial;&quot;&gt;&lt;font size=&quot;3&quot;&gt;Item item&lt;/font&gt;&lt;/span&gt;&lt;span style=&quot;font-size: medium; background-color: initial;&quot;&gt;): void&lt;/span&gt;&lt;/p&gt;&lt;div&gt;&lt;font size=&quot;3&quot;&gt;&lt;br&gt;&lt;/font&gt;&lt;/div&gt;&lt;p style=&quot;margin:0 0 0 4px;line-height:1.6;&quot;&gt;&lt;br&gt;&lt;/p&gt;&lt;p style=&quot;margin: 0px 0px 0px 4px; line-height: 1.6;&quot;&gt;&lt;font size=&quot;3&quot;&gt;&lt;br&gt;&lt;/font&gt;&lt;/p&gt;&lt;p style=&quot;margin:0 0 0 4px;line-height:1.6;&quot;&gt;&lt;span style=&quot;background-color: initial;&quot; class=&quot;hljs-params&quot;&gt;&lt;br&gt;&lt;/span&gt;&lt;/p&gt;" style="verticalAlign=top;align=left;overflow=fill;fontSize=14;fontFamily=Helvetica;html=1;rounded=0;shadow=1;comic=0;labelBackgroundColor=none;strokeWidth=1;strokeColor=#990099;" parent="1" vertex="1">
          <mxGeometry x="-1615" y="-50" width="250" height="130" as="geometry" />
        </mxCell>
        <mxCell id="iWBeRTfewltvSb-JFVSI-13" value="" style="endArrow=none;html=1;rounded=0;entryX=1;entryY=0.5;entryDx=0;entryDy=0;exitX=0;exitY=0.5;exitDx=0;exitDy=0;strokeColor=#990099;fillColor=#9933FF;" parent="1" source="z7JIA7cdmUVg2Eins9XX-15" target="node14" edge="1">
          <mxGeometry width="50" height="50" relative="1" as="geometry">
            <mxPoint x="-1277" y="-571" as="sourcePoint" />
            <mxPoint x="-1365" y="-572" as="targetPoint" />
          </mxGeometry>
        </mxCell>
        <mxCell id="iWBeRTfewltvSb-JFVSI-15" value="" style="endArrow=none;html=1;rounded=0;entryX=1;entryY=0.5;entryDx=0;entryDy=0;strokeColor=#990099;fillColor=#9933FF;exitX=0;exitY=0.5;exitDx=0;exitDy=0;" parent="1" source="z7JIA7cdmUVg2Eins9XX-15" target="iWBeRTfewltvSb-JFVSI-9" edge="1">
          <mxGeometry width="50" height="50" relative="1" as="geometry">
            <mxPoint x="-1275" y="-470" as="sourcePoint" />
            <mxPoint x="-1355" y="-260" as="targetPoint" />
            <Array as="points" />
          </mxGeometry>
        </mxCell>
        <mxCell id="iWBeRTfewltvSb-JFVSI-16" value="" style="endArrow=none;html=1;rounded=0;entryX=1;entryY=0.5;entryDx=0;entryDy=0;exitX=0;exitY=0.5;exitDx=0;exitDy=0;strokeColor=#990099;fillColor=#9933FF;" parent="1" source="z7JIA7cdmUVg2Eins9XX-15" target="iWBeRTfewltvSb-JFVSI-8" edge="1">
          <mxGeometry width="50" height="50" relative="1" as="geometry">
            <mxPoint x="-1265" y="-457" as="sourcePoint" />
            <mxPoint x="-1345" y="-250" as="targetPoint" />
          </mxGeometry>
        </mxCell>
        <mxCell id="iWBeRTfewltvSb-JFVSI-17" value="" style="endArrow=none;html=1;rounded=0;entryX=1;entryY=0.5;entryDx=0;entryDy=0;strokeColor=#990099;fillColor=#9933FF;" parent="1" target="iWBeRTfewltvSb-JFVSI-12" edge="1">
          <mxGeometry width="50" height="50" relative="1" as="geometry">
            <mxPoint x="-1285" y="-320" as="sourcePoint" />
            <mxPoint x="-1355" y="-170" as="targetPoint" />
          </mxGeometry>
        </mxCell>
        <mxCell id="iWBeRTfewltvSb-JFVSI-19" value="" style="endArrow=none;html=1;rounded=0;entryX=1;entryY=0.5;entryDx=0;entryDy=0;strokeColor=#990099;fillColor=#9933FF;" parent="1" target="iWBeRTfewltvSb-JFVSI-10" edge="1">
          <mxGeometry width="50" height="50" relative="1" as="geometry">
            <mxPoint x="-1285" y="-320" as="sourcePoint" />
            <mxPoint x="-1355" y="-5" as="targetPoint" />
          </mxGeometry>
        </mxCell>
        <mxCell id="iWBeRTfewltvSb-JFVSI-20" value="" style="endArrow=none;html=1;rounded=0;entryX=1;entryY=0.5;entryDx=0;entryDy=0;strokeColor=#990099;fillColor=#9933FF;exitX=0;exitY=0.5;exitDx=0;exitDy=0;" parent="1" source="iWBeRTfewltvSb-JFVSI-3" target="iWBeRTfewltvSb-JFVSI-7" edge="1">
          <mxGeometry width="50" height="50" relative="1" as="geometry">
            <mxPoint x="-1345" y="80" as="sourcePoint" />
            <mxPoint x="-1345" y="5" as="targetPoint" />
          </mxGeometry>
        </mxCell>
        <mxCell id="iWBeRTfewltvSb-JFVSI-22" value="" style="endArrow=none;html=1;rounded=0;exitX=1;exitY=0.5;exitDx=0;exitDy=0;entryX=0;entryY=0.5;entryDx=0;entryDy=0;strokeColor=#000000;shadow=1;" parent="1" edge="1">
          <mxGeometry width="50" height="50" relative="1" as="geometry">
            <mxPoint x="70" y="568.6600000000001" as="sourcePoint" />
            <mxPoint x="150" y="568.6600000000001" as="targetPoint" />
          </mxGeometry>
        </mxCell>
        <mxCell id="iWBeRTfewltvSb-JFVSI-23" value="&lt;p style=&quot;margin:0px;margin-top:4px;text-align:center;&quot;&gt;&lt;font style=&quot;font-size: 24px;&quot;&gt;&lt;b style=&quot;&quot;&gt;&amp;nbsp;&lt;/b&gt;&lt;b style=&quot;background-color: initial;&quot;&gt;(A)&amp;nbsp;&lt;/b&gt;&lt;/font&gt;&lt;span style=&quot;background-color: initial; text-align: left; font-size: 24px;&quot;&gt;&lt;b&gt;StorageSpace&lt;/b&gt;&lt;/span&gt;&lt;/p&gt;&lt;hr size=&quot;1&quot;&gt;&lt;p style=&quot;margin:0 0 0 4px;line-height:1.6;&quot;&gt;&lt;/p&gt;&lt;p style=&quot;margin:0 0 0 4px;line-height:1.6;&quot;&gt;&lt;span style=&quot;background-color: initial;&quot;&gt;&lt;font size=&quot;3&quot;&gt;&lt;b&gt;storageItems&lt;/b&gt;&lt;/font&gt;&lt;/span&gt;&lt;font size=&quot;3&quot;&gt;&amp;nbsp;(List&amp;lt;Item&amp;gt;)&lt;/font&gt;&lt;/p&gt;&lt;hr size=&quot;1&quot;&gt;&lt;p style=&quot;margin:0 0 0 4px;line-height:1.6;&quot;&gt;&lt;br&gt;&lt;/p&gt;&lt;p style=&quot;margin:0 0 0 4px;line-height:1.6;&quot;&gt;&lt;br&gt;&lt;/p&gt;&lt;p style=&quot;margin:0 0 0 4px;line-height:1.6;&quot;&gt;&lt;br&gt;&lt;/p&gt;" style="verticalAlign=top;align=left;overflow=fill;fontSize=14;fontFamily=Helvetica;html=1;rounded=0;shadow=1;comic=0;labelBackgroundColor=none;strokeWidth=1;strokeColor=#3399FF;" parent="1" vertex="1">
          <mxGeometry x="-530" y="-600.31" width="280" height="102.5" as="geometry" />
        </mxCell>
        <mxCell id="iWBeRTfewltvSb-JFVSI-27" value="" style="edgeStyle=orthogonalEdgeStyle;rounded=0;orthogonalLoop=1;jettySize=auto;html=1;entryX=0.5;entryY=1;entryDx=0;entryDy=0;" parent="1" source="iWBeRTfewltvSb-JFVSI-25" target="iWBeRTfewltvSb-JFVSI-23" edge="1">
          <mxGeometry relative="1" as="geometry" />
        </mxCell>
        <mxCell id="iWBeRTfewltvSb-JFVSI-25" value="&lt;p style=&quot;margin:0px;margin-top:4px;text-align:center;&quot;&gt;&lt;font style=&quot;font-size: 24px;&quot;&gt;&lt;b style=&quot;&quot;&gt;&amp;nbsp;&lt;/b&gt;&lt;b style=&quot;background-color: initial;&quot;&gt;(A)&amp;nbsp;&lt;/b&gt;&lt;b style=&quot;background-color: initial;&quot;&gt;Hat&amp;nbsp;&lt;/b&gt;&lt;/font&gt;&lt;/p&gt;&lt;hr size=&quot;1&quot;&gt;&lt;p style=&quot;margin:0 0 0 4px;line-height:1.6;&quot;&gt;&lt;/p&gt;&lt;p style=&quot;margin:0 0 0 4px;line-height:1.6;&quot;&gt;&lt;font size=&quot;3&quot;&gt;&lt;b&gt;name&lt;/b&gt; (String)&lt;/font&gt;&lt;/p&gt;&lt;p style=&quot;margin:0 0 0 4px;line-height:1.6;&quot;&gt;&lt;b style=&quot;font-size: medium; background-color: initial;&quot;&gt;owner &lt;/b&gt;&lt;span style=&quot;font-size: medium; background-color: initial;&quot;&gt;( Person)&lt;/span&gt;&lt;/p&gt;&lt;p style=&quot;margin:0 0 0 4px;line-height:1.6;&quot;&gt;&lt;span style=&quot;background-color: initial;&quot;&gt;&lt;font size=&quot;3&quot;&gt;&lt;b&gt;capacity&amp;nbsp;&lt;/b&gt;&lt;/font&gt;&lt;/span&gt;&lt;span style=&quot;font-size: medium; background-color: initial;&quot;&gt;(int)&lt;/span&gt;&lt;/p&gt;&lt;hr size=&quot;1&quot;&gt;&lt;p style=&quot;margin:0 0 0 4px;line-height:1.6;&quot;&gt;&lt;span style=&quot;font-size: medium; background-color: initial;&quot;&gt;&lt;b&gt;Hat&lt;/b&gt;(String name, Person owner, int capacity)&lt;/span&gt;&lt;/p&gt;&lt;p style=&quot;margin:0 0 0 4px;line-height:1.6;&quot;&gt;&lt;br&gt;&lt;/p&gt;&lt;p style=&quot;margin:0 0 0 4px;line-height:1.6;&quot;&gt;&lt;br&gt;&lt;/p&gt;" style="verticalAlign=top;align=left;overflow=fill;fontSize=14;fontFamily=Helvetica;html=1;rounded=0;shadow=1;comic=0;labelBackgroundColor=none;strokeWidth=1;strokeColor=#3399FF;" parent="1" vertex="1">
          <mxGeometry x="-560" y="-420" width="340" height="180" as="geometry" />
        </mxCell>
        <mxCell id="iWBeRTfewltvSb-JFVSI-26" style="edgeStyle=orthogonalEdgeStyle;rounded=0;orthogonalLoop=1;jettySize=auto;html=1;exitX=0.5;exitY=0;exitDx=0;exitDy=0;entryX=0.5;entryY=1;entryDx=0;entryDy=0;" parent="1" source="iWBeRTfewltvSb-JFVSI-23" target="node15" edge="1">
          <mxGeometry relative="1" as="geometry">
            <Array as="points">
              <mxPoint x="-390" y="-640" />
              <mxPoint x="-120" y="-640" />
            </Array>
            <mxPoint x="-110" y="-670" as="targetPoint" />
            <mxPoint x="30" y="-594" as="sourcePoint" />
          </mxGeometry>
        </mxCell>
      </root>
    </mxGraphModel>
  </diagram>
</mxfile>
